solid OpenSCAD_Model
  facet normal 0 0.832688 -0.553743
    outer loop
      vertex 129.5 133.17 0.540163
      vertex 0.5 133.334 0.786777
      vertex 129.5 133.334 0.786777
    endloop
  endfacet
  facet normal 0 0.832688 -0.553743
    outer loop
      vertex 0.5 133.334 0.786777
      vertex 129.5 133.17 0.540163
      vertex 0.5 133.17 0.540163
    endloop
  endfacet
  facet normal 0 0.923288 -0.384109
    outer loop
      vertex 129.5 133.334 0.786777
      vertex 0.5 133.448 1.0608
      vertex 129.5 133.448 1.0608
    endloop
  endfacet
  facet normal 0 0.923288 -0.384109
    outer loop
      vertex 0.5 133.448 1.0608
      vertex 129.5 133.334 0.786777
      vertex 0.5 133.334 0.786777
    endloop
  endfacet
  facet normal 0 -0.980826 -0.194884
    outer loop
      vertex 0.5 68.5521 1.0608
      vertex 129.5 68.4943 1.3517
      vertex 0.5 68.4943 1.3517
    endloop
  endfacet
  facet normal 0 -0.980826 -0.194884
    outer loop
      vertex 129.5 68.4943 1.3517
      vertex 0.5 68.5521 1.0608
      vertex 129.5 68.5521 1.0608
    endloop
  endfacet
  facet normal 0 1 -0
    outer loop
      vertex 129.5 133.506 1.3517
      vertex 0.5 133.506 1.5
      vertex 129.5 133.506 1.5
    endloop
  endfacet
  facet normal 0 1 0
    outer loop
      vertex 0.5 133.506 1.5
      vertex 129.5 133.506 1.3517
      vertex 0.5 133.506 1.3517
    endloop
  endfacet
  facet normal 0 -0.382708 -0.923869
    outer loop
      vertex 0.5 69.2868 0.165653
      vertex 129.5 69.5608 0.0521498
      vertex 129.5 69.2868 0.165653
    endloop
  endfacet
  facet normal -0 -0.382708 -0.923869
    outer loop
      vertex 129.5 69.5608 0.0521498
      vertex 0.5 69.2868 0.165653
      vertex 0.5 69.5608 0.0521498
    endloop
  endfacet
  facet normal 0 0.194844 -0.980834
    outer loop
      vertex 29.625 132.148 -0.00571442
      vertex 0.5 132.148 -0.00571442
      vertex 29.625 132.375 0.0393794
    endloop
  endfacet
  facet normal 0 0.194844 -0.980834
    outer loop
      vertex 79.625 132.148 -0.00571442
      vertex 50.375 132.148 -0.00571442
      vertex 79.625 132.375 0.0393794
    endloop
  endfacet
  facet normal 0 0.195028 -0.980798
    outer loop
      vertex 100.375 132.148 -0.00571442
      vertex 129.5 132.439 0.0521498
      vertex 129.5 132.148 -0.00571442
    endloop
  endfacet
  facet normal 1.91027e-006 0.194844 -0.980834
    outer loop
      vertex 100.375 132.375 0.0393794
      vertex 129.5 132.439 0.0521498
      vertex 100.375 132.148 -0.00571442
    endloop
  endfacet
  facet normal 0 0.19568 -0.980668
    outer loop
      vertex 79.625 132.375 0.0393794
      vertex 129.5 132.439 0.0521498
      vertex 100.375 132.375 0.0393794
    endloop
  endfacet
  facet normal 0 0.194844 -0.980834
    outer loop
      vertex 50.375 132.375 0.0393794
      vertex 79.625 132.375 0.0393794
      vertex 50.375 132.148 -0.00571442
    endloop
  endfacet
  facet normal 0 0.19568 -0.980668
    outer loop
      vertex 50.375 132.375 0.0393794
      vertex 129.5 132.439 0.0521498
      vertex 79.625 132.375 0.0393794
    endloop
  endfacet
  facet normal 0 0.19568 -0.980668
    outer loop
      vertex 29.625 132.375 0.0393794
      vertex 129.5 132.439 0.0521498
      vertex 50.375 132.375 0.0393794
    endloop
  endfacet
  facet normal 0 0.19568 -0.980668
    outer loop
      vertex 29.625 132.375 0.0393794
      vertex 0.5 132.439 0.0521498
      vertex 129.5 132.439 0.0521498
    endloop
  endfacet
  facet normal -1.49009e-006 0.195028 -0.980798
    outer loop
      vertex 0.5 132.439 0.0521498
      vertex 29.625 132.375 0.0393794
      vertex 0.5 132.148 -0.00571442
    endloop
  endfacet
  facet normal 0 0.980697 -0.195533
    outer loop
      vertex 129.5 133.448 1.0608
      vertex 0.5 133.506 1.3517
      vertex 129.5 133.506 1.3517
    endloop
  endfacet
  facet normal 0 0.980697 -0.195533
    outer loop
      vertex 0.5 133.506 1.3517
      vertex 129.5 133.448 1.0608
      vertex 0.5 133.448 1.0608
    endloop
  endfacet
  facet normal 0 -0.555594 -0.831454
    outer loop
      vertex 0.5 69.0402 0.330436
      vertex 129.5 69.2868 0.165653
      vertex 129.5 69.0402 0.330436
    endloop
  endfacet
  facet normal -0 -0.555594 -0.831454
    outer loop
      vertex 129.5 69.2868 0.165653
      vertex 0.5 69.0402 0.330436
      vertex 0.5 69.2868 0.165653
    endloop
  endfacet
  facet normal 0 0.706647 -0.707567
    outer loop
      vertex 0.5 132.96 0.330436
      vertex 129.5 133.17 0.540163
      vertex 129.5 132.96 0.330436
    endloop
  endfacet
  facet normal 0 0.706647 -0.707567
    outer loop
      vertex 129.5 133.17 0.540163
      vertex 0.5 132.96 0.330436
      vertex 0.5 133.17 0.540163
    endloop
  endfacet
  facet normal 0 0.554971 -0.831869
    outer loop
      vertex 0.5 132.713 0.165653
      vertex 129.5 132.96 0.330436
      vertex 129.5 132.713 0.165653
    endloop
  endfacet
  facet normal 0 0.554971 -0.831869
    outer loop
      vertex 129.5 132.96 0.330436
      vertex 0.5 132.713 0.165653
      vertex 0.5 132.96 0.330436
    endloop
  endfacet
  facet normal 0 0.382708 -0.923869
    outer loop
      vertex 0.5 132.439 0.0521498
      vertex 129.5 132.713 0.165653
      vertex 129.5 132.439 0.0521498
    endloop
  endfacet
  facet normal 0 0.382708 -0.923869
    outer loop
      vertex 129.5 132.713 0.165653
      vertex 0.5 132.439 0.0521498
      vertex 0.5 132.713 0.165653
    endloop
  endfacet
  facet normal 0 -1 0
    outer loop
      vertex 0.5 68.4943 44.5
      vertex 102 68.4943 35
      vertex 129.5 68.4943 44.5
    endloop
  endfacet
  facet normal 0 -1 0
    outer loop
      vertex 0.5 68.4943 44.5
      vertex 102 68.4943 27
      vertex 102 68.4943 35
    endloop
  endfacet
  facet normal 0 -1 0
    outer loop
      vertex 129.5 68.4943 1.3517
      vertex 102 68.4943 27
      vertex 0.5 68.4943 1.3517
    endloop
  endfacet
  facet normal 0 -1 0
    outer loop
      vertex 0.5 68.4943 1.3517
      vertex 102 68.4943 27
      vertex 0.5 68.4943 44.5
    endloop
  endfacet
  facet normal 0 -1 0
    outer loop
      vertex 112 68.4943 35
      vertex 129.5 68.4943 44.5
      vertex 102 68.4943 35
    endloop
  endfacet
  facet normal 0 -1 0
    outer loop
      vertex 112 68.4943 27
      vertex 129.5 68.4943 44.5
      vertex 112 68.4943 35
    endloop
  endfacet
  facet normal 0 -1 0
    outer loop
      vertex 112 68.4943 27
      vertex 129.5 68.4943 1.3517
      vertex 129.5 68.4943 44.5
    endloop
  endfacet
  facet normal 0 -1 0
    outer loop
      vertex 102 68.4943 27
      vertex 129.5 68.4943 1.3517
      vertex 112 68.4943 27
    endloop
  endfacet
  facet normal 0 -0.195092 -0.980785
    outer loop
      vertex 0.5 69.5608 0.0521498
      vertex 129.5 69.8517 -0.00571442
      vertex 129.5 69.5608 0.0521498
    endloop
  endfacet
  facet normal -0 -0.195092 -0.980785
    outer loop
      vertex 129.5 69.8517 -0.00571442
      vertex 0.5 69.5608 0.0521498
      vertex 0.5 69.8517 -0.00571442
    endloop
  endfacet
  facet normal 0 -0.706984 -0.70723
    outer loop
      vertex 0.5 69.0402 0.330436
      vertex 129.5 68.8304 0.540163
      vertex 0.5 68.8304 0.540163
    endloop
  endfacet
  facet normal 0 -0.706984 -0.70723
    outer loop
      vertex 129.5 68.8304 0.540163
      vertex 0.5 69.0402 0.330436
      vertex 129.5 69.0402 0.330436
    endloop
  endfacet
  facet normal 0 0 -1
    outer loop
      vertex 3.51127 73.4847 -0.00571442
      vertex 29.625 130.125 -0.00571442
      vertex 3.68882 73.1363 -0.00571442
    endloop
  endfacet
  facet normal 0 0 -1
    outer loop
      vertex 29.625 130.125 -0.00571442
      vertex 3.68882 129.364 -0.00571442
      vertex 3.75 129.75 -0.00571442
    endloop
  endfacet
  facet normal 0 0 -1
    outer loop
      vertex 3.23473 73.7613 -0.00571442
      vertex 29.625 130.125 -0.00571442
      vertex 3.51127 73.4847 -0.00571442
    endloop
  endfacet
  facet normal 0 0 -1
    outer loop
      vertex 29.625 130.125 -0.00571442
      vertex 3.51127 129.015 -0.00571442
      vertex 3.68882 129.364 -0.00571442
    endloop
  endfacet
  facet normal 0 0 -1
    outer loop
      vertex 3.23473 128.739 -0.00571442
      vertex 29.625 130.125 -0.00571442
      vertex 3.23473 73.7613 -0.00571442
    endloop
  endfacet
  facet normal 0 0 -1
    outer loop
      vertex 29.625 130.125 -0.00571442
      vertex 3.23473 128.739 -0.00571442
      vertex 3.51127 129.015 -0.00571442
    endloop
  endfacet
  facet normal 0 0 -1
    outer loop
      vertex 2.88627 73.9388 -0.00571442
      vertex 3.23473 128.739 -0.00571442
      vertex 3.23473 73.7613 -0.00571442
    endloop
  endfacet
  facet normal 0 0 -1
    outer loop
      vertex 2.88627 73.9388 -0.00571442
      vertex 2.88627 128.561 -0.00571442
      vertex 3.23473 128.739 -0.00571442
    endloop
  endfacet
  facet normal 0 0 -1
    outer loop
      vertex 2.5 74 -0.00571442
      vertex 2.88627 128.561 -0.00571442
      vertex 2.88627 73.9388 -0.00571442
    endloop
  endfacet
  facet normal 0 0 -1
    outer loop
      vertex 2.5 74 -0.00571442
      vertex 2.5 128.5 -0.00571442
      vertex 2.88627 128.561 -0.00571442
    endloop
  endfacet
  facet normal 0 0 -1
    outer loop
      vertex 2.11373 73.9388 -0.00571442
      vertex 2.5 128.5 -0.00571442
      vertex 2.5 74 -0.00571442
    endloop
  endfacet
  facet normal 0 0 -1
    outer loop
      vertex 2.11373 73.9388 -0.00571442
      vertex 2.11373 128.561 -0.00571442
      vertex 2.5 128.5 -0.00571442
    endloop
  endfacet
  facet normal 0 0 -1
    outer loop
      vertex 1.76527 73.7613 -0.00571442
      vertex 2.11373 128.561 -0.00571442
      vertex 2.11373 73.9388 -0.00571442
    endloop
  endfacet
  facet normal 0 0 -1
    outer loop
      vertex 1.76527 73.7613 -0.00571442
      vertex 1.76527 128.739 -0.00571442
      vertex 2.11373 128.561 -0.00571442
    endloop
  endfacet
  facet normal 0 0 -1
    outer loop
      vertex 1.48873 73.4847 -0.00571442
      vertex 1.76527 128.739 -0.00571442
      vertex 1.76527 73.7613 -0.00571442
    endloop
  endfacet
  facet normal 0 0 -1
    outer loop
      vertex 1.48873 73.4847 -0.00571442
      vertex 1.48873 129.015 -0.00571442
      vertex 1.76527 128.739 -0.00571442
    endloop
  endfacet
  facet normal 0 0 -1
    outer loop
      vertex 1.31118 73.1363 -0.00571442
      vertex 1.48873 129.015 -0.00571442
      vertex 1.48873 73.4847 -0.00571442
    endloop
  endfacet
  facet normal 0 0 -1
    outer loop
      vertex 1.31118 73.1363 -0.00571442
      vertex 1.31118 129.364 -0.00571442
      vertex 1.48873 129.015 -0.00571442
    endloop
  endfacet
  facet normal 0 0 -1
    outer loop
      vertex 0.5 69.8517 -0.00571442
      vertex 1.31118 73.1363 -0.00571442
      vertex 1.25 72.75 -0.00571442
    endloop
  endfacet
  facet normal 0 0 -1
    outer loop
      vertex 1.31118 73.1363 -0.00571442
      vertex 0.5 132.148 -0.00571442
      vertex 1.31118 129.364 -0.00571442
    endloop
  endfacet
  facet normal 0 0 -1
    outer loop
      vertex 128.689 129.364 -0.00571442
      vertex 129.5 132.148 -0.00571442
      vertex 128.689 73.1363 -0.00571442
    endloop
  endfacet
  facet normal 0 0 -1
    outer loop
      vertex 129.5 132.148 -0.00571442
      vertex 128.689 129.364 -0.00571442
      vertex 128.75 129.75 -0.00571442
    endloop
  endfacet
  facet normal 0 0 -1
    outer loop
      vertex 128.511 73.4847 -0.00571442
      vertex 128.689 129.364 -0.00571442
      vertex 128.689 73.1363 -0.00571442
    endloop
  endfacet
  facet normal 0 0 -1
    outer loop
      vertex 128.511 73.4847 -0.00571442
      vertex 128.511 129.015 -0.00571442
      vertex 128.689 129.364 -0.00571442
    endloop
  endfacet
  facet normal 0 0 -1
    outer loop
      vertex 128.235 73.7613 -0.00571442
      vertex 128.511 129.015 -0.00571442
      vertex 128.511 73.4847 -0.00571442
    endloop
  endfacet
  facet normal 0 0 -1
    outer loop
      vertex 128.235 73.7613 -0.00571442
      vertex 128.235 128.739 -0.00571442
      vertex 128.511 129.015 -0.00571442
    endloop
  endfacet
  facet normal 0 0 -1
    outer loop
      vertex 127.886 73.9388 -0.00571442
      vertex 128.235 128.739 -0.00571442
      vertex 128.235 73.7613 -0.00571442
    endloop
  endfacet
  facet normal 0 0 -1
    outer loop
      vertex 127.886 73.9388 -0.00571442
      vertex 127.886 128.561 -0.00571442
      vertex 128.235 128.739 -0.00571442
    endloop
  endfacet
  facet normal 0 0 -1
    outer loop
      vertex 127.5 74 -0.00571442
      vertex 127.886 128.561 -0.00571442
      vertex 127.886 73.9388 -0.00571442
    endloop
  endfacet
  facet normal 0 0 -1
    outer loop
      vertex 127.5 74 -0.00571442
      vertex 127.5 128.5 -0.00571442
      vertex 127.886 128.561 -0.00571442
    endloop
  endfacet
  facet normal 0 0 -1
    outer loop
      vertex 127.114 73.9388 -0.00571442
      vertex 127.5 128.5 -0.00571442
      vertex 127.5 74 -0.00571442
    endloop
  endfacet
  facet normal 0 0 -1
    outer loop
      vertex 127.114 73.9388 -0.00571442
      vertex 127.114 128.561 -0.00571442
      vertex 127.5 128.5 -0.00571442
    endloop
  endfacet
  facet normal 0 0 -1
    outer loop
      vertex 126.765 73.7613 -0.00571442
      vertex 127.114 128.561 -0.00571442
      vertex 127.114 73.9388 -0.00571442
    endloop
  endfacet
  facet normal 0 0 -1
    outer loop
      vertex 126.765 73.7613 -0.00571442
      vertex 126.765 128.739 -0.00571442
      vertex 127.114 128.561 -0.00571442
    endloop
  endfacet
  facet normal 0 0 -1
    outer loop
      vertex 100.375 130.125 -0.00571442
      vertex 126.765 73.7613 -0.00571442
      vertex 126.489 73.4847 -0.00571442
    endloop
  endfacet
  facet normal 0 0 -1
    outer loop
      vertex 126.765 73.7613 -0.00571442
      vertex 100.375 130.125 -0.00571442
      vertex 126.765 128.739 -0.00571442
    endloop
  endfacet
  facet normal 0 0 -1
    outer loop
      vertex 100.375 130.125 -0.00571442
      vertex 126.489 73.4847 -0.00571442
      vertex 126.311 73.1363 -0.00571442
    endloop
  endfacet
  facet normal 0 0 -1
    outer loop
      vertex 126.765 128.739 -0.00571442
      vertex 100.375 130.125 -0.00571442
      vertex 126.489 129.015 -0.00571442
    endloop
  endfacet
  facet normal 0 0 -1
    outer loop
      vertex 79.625 130.125 -0.00571442
      vertex 126.311 73.1363 -0.00571442
      vertex 126.25 72.75 -0.00571442
    endloop
  endfacet
  facet normal 0 0 -1
    outer loop
      vertex 126.489 129.015 -0.00571442
      vertex 100.375 130.125 -0.00571442
      vertex 126.311 129.364 -0.00571442
    endloop
  endfacet
  facet normal 0 0 -1
    outer loop
      vertex 128.689 73.1363 -0.00571442
      vertex 129.5 69.8517 -0.00571442
      vertex 128.75 72.75 -0.00571442
    endloop
  endfacet
  facet normal 0 0 -1
    outer loop
      vertex 129.5 69.8517 -0.00571442
      vertex 128.689 72.3637 -0.00571442
      vertex 128.75 72.75 -0.00571442
    endloop
  endfacet
  facet normal 0 0 -1
    outer loop
      vertex 129.5 69.8517 -0.00571442
      vertex 128.511 72.0153 -0.00571442
      vertex 128.689 72.3637 -0.00571442
    endloop
  endfacet
  facet normal 0 0 -1
    outer loop
      vertex 129.5 69.8517 -0.00571442
      vertex 128.235 71.7387 -0.00571442
      vertex 128.511 72.0153 -0.00571442
    endloop
  endfacet
  facet normal 0 0 -1
    outer loop
      vertex 129.5 69.8517 -0.00571442
      vertex 127.886 71.5612 -0.00571442
      vertex 128.235 71.7387 -0.00571442
    endloop
  endfacet
  facet normal 0 0 -1
    outer loop
      vertex 129.5 69.8517 -0.00571442
      vertex 127.5 71.5 -0.00571442
      vertex 127.886 71.5612 -0.00571442
    endloop
  endfacet
  facet normal 0 0 -1
    outer loop
      vertex 129.5 69.8517 -0.00571442
      vertex 127.114 71.5612 -0.00571442
      vertex 127.5 71.5 -0.00571442
    endloop
  endfacet
  facet normal 0 0 -1
    outer loop
      vertex 129.5 69.8517 -0.00571442
      vertex 126.765 71.7387 -0.00571442
      vertex 127.114 71.5612 -0.00571442
    endloop
  endfacet
  facet normal 0 0 -1
    outer loop
      vertex 126.311 129.364 -0.00571442
      vertex 100.375 130.125 -0.00571442
      vertex 126.25 129.75 -0.00571442
    endloop
  endfacet
  facet normal 0 0 -1
    outer loop
      vertex 3.75 72.75 -0.00571442
      vertex 126.25 72.75 -0.00571442
      vertex 126.311 72.3637 -0.00571442
    endloop
  endfacet
  facet normal 0 0 -1
    outer loop
      vertex 126.311 73.1363 -0.00571442
      vertex 79.625 130.125 -0.00571442
      vertex 100.375 130.125 -0.00571442
    endloop
  endfacet
  facet normal 0 0 -1
    outer loop
      vertex 3.68882 72.3637 -0.00571442
      vertex 126.311 72.3637 -0.00571442
      vertex 126.489 72.0153 -0.00571442
    endloop
  endfacet
  facet normal 0 0 -1
    outer loop
      vertex 79.625 130.125 -0.00571442
      vertex 50.375 130.125 -0.00571442
      vertex 79.625 132.148 -0.00571442
    endloop
  endfacet
  facet normal 0 0 -1
    outer loop
      vertex 126.25 72.75 -0.00571442
      vertex 50.375 130.125 -0.00571442
      vertex 79.625 130.125 -0.00571442
    endloop
  endfacet
  facet normal 0 0 -1
    outer loop
      vertex 3.51127 72.0153 -0.00571442
      vertex 126.489 72.0153 -0.00571442
      vertex 126.765 71.7387 -0.00571442
    endloop
  endfacet
  facet normal 0 0 -1
    outer loop
      vertex 126.25 72.75 -0.00571442
      vertex 3.75 72.75 -0.00571442
      vertex 50.375 130.125 -0.00571442
    endloop
  endfacet
  facet normal 0 0 -1
    outer loop
      vertex 3.23473 71.7387 -0.00571442
      vertex 126.765 71.7387 -0.00571442
      vertex 129.5 69.8517 -0.00571442
    endloop
  endfacet
  facet normal -0 0 -1
    outer loop
      vertex 50.375 130.125 -0.00571442
      vertex 3.68882 73.1363 -0.00571442
      vertex 29.625 130.125 -0.00571442
    endloop
  endfacet
  facet normal 0 0 -1
    outer loop
      vertex 3.68882 73.1363 -0.00571442
      vertex 50.375 130.125 -0.00571442
      vertex 3.75 72.75 -0.00571442
    endloop
  endfacet
  facet normal 0 0 -1
    outer loop
      vertex 126.311 72.3637 -0.00571442
      vertex 3.68882 72.3637 -0.00571442
      vertex 3.75 72.75 -0.00571442
    endloop
  endfacet
  facet normal 0 0 -1
    outer loop
      vertex 126.489 72.0153 -0.00571442
      vertex 3.51127 72.0153 -0.00571442
      vertex 3.68882 72.3637 -0.00571442
    endloop
  endfacet
  facet normal 0 0 -1
    outer loop
      vertex 126.765 71.7387 -0.00571442
      vertex 3.23473 71.7387 -0.00571442
      vertex 3.51127 72.0153 -0.00571442
    endloop
  endfacet
  facet normal 0 0 -1
    outer loop
      vertex 0.5 69.8517 -0.00571442
      vertex 3.23473 71.7387 -0.00571442
      vertex 129.5 69.8517 -0.00571442
    endloop
  endfacet
  facet normal 0 0 -1
    outer loop
      vertex 3.23473 71.7387 -0.00571442
      vertex 0.5 69.8517 -0.00571442
      vertex 2.88627 71.5612 -0.00571442
    endloop
  endfacet
  facet normal -0 0 -1
    outer loop
      vertex 1.31118 73.1363 -0.00571442
      vertex 0.5 69.8517 -0.00571442
      vertex 0.5 132.148 -0.00571442
    endloop
  endfacet
  facet normal -0 0 -1
    outer loop
      vertex 1.31118 72.3637 -0.00571442
      vertex 0.5 69.8517 -0.00571442
      vertex 1.25 72.75 -0.00571442
    endloop
  endfacet
  facet normal -0 0 -1
    outer loop
      vertex 1.48873 72.0153 -0.00571442
      vertex 0.5 69.8517 -0.00571442
      vertex 1.31118 72.3637 -0.00571442
    endloop
  endfacet
  facet normal -0 0 -1
    outer loop
      vertex 1.76527 71.7387 -0.00571442
      vertex 0.5 69.8517 -0.00571442
      vertex 1.48873 72.0153 -0.00571442
    endloop
  endfacet
  facet normal -0 0 -1
    outer loop
      vertex 2.11373 71.5612 -0.00571442
      vertex 0.5 69.8517 -0.00571442
      vertex 1.76527 71.7387 -0.00571442
    endloop
  endfacet
  facet normal -0 0 -1
    outer loop
      vertex 2.5 71.5 -0.00571442
      vertex 0.5 69.8517 -0.00571442
      vertex 2.11373 71.5612 -0.00571442
    endloop
  endfacet
  facet normal 0 0 -1
    outer loop
      vertex 2.88627 71.5612 -0.00571442
      vertex 0.5 69.8517 -0.00571442
      vertex 2.5 71.5 -0.00571442
    endloop
  endfacet
  facet normal 0 0 -1
    outer loop
      vertex 129.5 69.8517 -0.00571442
      vertex 128.689 73.1363 -0.00571442
      vertex 129.5 132.148 -0.00571442
    endloop
  endfacet
  facet normal 0 0 -1
    outer loop
      vertex 128.689 130.136 -0.00571442
      vertex 129.5 132.148 -0.00571442
      vertex 128.75 129.75 -0.00571442
    endloop
  endfacet
  facet normal 0 0 -1
    outer loop
      vertex 128.511 130.485 -0.00571442
      vertex 129.5 132.148 -0.00571442
      vertex 128.689 130.136 -0.00571442
    endloop
  endfacet
  facet normal 0 0 -1
    outer loop
      vertex 128.235 130.761 -0.00571442
      vertex 129.5 132.148 -0.00571442
      vertex 128.511 130.485 -0.00571442
    endloop
  endfacet
  facet normal 0 0 -1
    outer loop
      vertex 127.886 130.939 -0.00571442
      vertex 129.5 132.148 -0.00571442
      vertex 128.235 130.761 -0.00571442
    endloop
  endfacet
  facet normal 0 0 -1
    outer loop
      vertex 127.5 131 -0.00571442
      vertex 129.5 132.148 -0.00571442
      vertex 127.886 130.939 -0.00571442
    endloop
  endfacet
  facet normal 0 0 -1
    outer loop
      vertex 127.114 130.939 -0.00571442
      vertex 129.5 132.148 -0.00571442
      vertex 127.5 131 -0.00571442
    endloop
  endfacet
  facet normal 0 0 -1
    outer loop
      vertex 100.375 132.148 -0.00571442
      vertex 126.25 129.75 -0.00571442
      vertex 100.375 130.125 -0.00571442
    endloop
  endfacet
  facet normal 0 0 -1
    outer loop
      vertex 126.25 129.75 -0.00571442
      vertex 100.375 132.148 -0.00571442
      vertex 126.311 130.136 -0.00571442
    endloop
  endfacet
  facet normal 0 0 -1
    outer loop
      vertex 126.311 130.136 -0.00571442
      vertex 100.375 132.148 -0.00571442
      vertex 126.489 130.485 -0.00571442
    endloop
  endfacet
  facet normal 0 0 -1
    outer loop
      vertex 126.489 130.485 -0.00571442
      vertex 100.375 132.148 -0.00571442
      vertex 126.765 130.761 -0.00571442
    endloop
  endfacet
  facet normal 0 0 -1
    outer loop
      vertex 126.765 130.761 -0.00571442
      vertex 100.375 132.148 -0.00571442
      vertex 127.114 130.939 -0.00571442
    endloop
  endfacet
  facet normal 0 0 -1
    outer loop
      vertex 127.114 130.939 -0.00571442
      vertex 100.375 132.148 -0.00571442
      vertex 129.5 132.148 -0.00571442
    endloop
  endfacet
  facet normal -0 0 -1
    outer loop
      vertex 79.625 132.148 -0.00571442
      vertex 50.375 130.125 -0.00571442
      vertex 50.375 132.148 -0.00571442
    endloop
  endfacet
  facet normal -0 0 -1
    outer loop
      vertex 29.625 130.125 -0.00571442
      vertex 3.75 129.75 -0.00571442
      vertex 29.625 132.148 -0.00571442
    endloop
  endfacet
  facet normal 0 0 -1
    outer loop
      vertex 3.68882 130.136 -0.00571442
      vertex 29.625 132.148 -0.00571442
      vertex 3.75 129.75 -0.00571442
    endloop
  endfacet
  facet normal 0 0 -1
    outer loop
      vertex 3.51127 130.485 -0.00571442
      vertex 29.625 132.148 -0.00571442
      vertex 3.68882 130.136 -0.00571442
    endloop
  endfacet
  facet normal 0 0 -1
    outer loop
      vertex 3.23473 130.761 -0.00571442
      vertex 29.625 132.148 -0.00571442
      vertex 3.51127 130.485 -0.00571442
    endloop
  endfacet
  facet normal 0 0 -1
    outer loop
      vertex 2.88627 130.939 -0.00571442
      vertex 29.625 132.148 -0.00571442
      vertex 3.23473 130.761 -0.00571442
    endloop
  endfacet
  facet normal 0 0 -1
    outer loop
      vertex 0.5 132.148 -0.00571442
      vertex 2.88627 130.939 -0.00571442
      vertex 2.5 131 -0.00571442
    endloop
  endfacet
  facet normal 0 0 -1
    outer loop
      vertex 2.88627 130.939 -0.00571442
      vertex 0.5 132.148 -0.00571442
      vertex 29.625 132.148 -0.00571442
    endloop
  endfacet
  facet normal 0 0 -1
    outer loop
      vertex 2.11373 130.939 -0.00571442
      vertex 0.5 132.148 -0.00571442
      vertex 2.5 131 -0.00571442
    endloop
  endfacet
  facet normal 0 0 -1
    outer loop
      vertex 1.76527 130.761 -0.00571442
      vertex 0.5 132.148 -0.00571442
      vertex 2.11373 130.939 -0.00571442
    endloop
  endfacet
  facet normal 0 0 -1
    outer loop
      vertex 1.48873 130.485 -0.00571442
      vertex 0.5 132.148 -0.00571442
      vertex 1.76527 130.761 -0.00571442
    endloop
  endfacet
  facet normal 0 0 -1
    outer loop
      vertex 1.31118 130.136 -0.00571442
      vertex 0.5 132.148 -0.00571442
      vertex 1.48873 130.485 -0.00571442
    endloop
  endfacet
  facet normal 0 0 -1
    outer loop
      vertex 1.25 129.75 -0.00571442
      vertex 0.5 132.148 -0.00571442
      vertex 1.31118 130.136 -0.00571442
    endloop
  endfacet
  facet normal 0 0 -1
    outer loop
      vertex 1.31118 129.364 -0.00571442
      vertex 0.5 132.148 -0.00571442
      vertex 1.25 129.75 -0.00571442
    endloop
  endfacet
  facet normal 0 -0.923765 -0.38296
    outer loop
      vertex 0.5 68.6657 0.786777
      vertex 129.5 68.5521 1.0608
      vertex 0.5 68.5521 1.0608
    endloop
  endfacet
  facet normal -7.16189e-007 -0.923884 -0.382672
    outer loop
      vertex 129.5 68.5521 1.0608
      vertex 0.5 68.6657 0.786777
      vertex 129.5 68.6656 0.786777
    endloop
  endfacet
  facet normal -6.44649e-007 -0.831598 -0.555379
    outer loop
      vertex 0.5 68.8304 0.540163
      vertex 129.5 68.6656 0.786777
      vertex 0.5 68.6657 0.786777
    endloop
  endfacet
  facet normal 0 -0.831442 -0.555612
    outer loop
      vertex 129.5 68.6656 0.786777
      vertex 0.5 68.8304 0.540163
      vertex 129.5 68.8304 0.540163
    endloop
  endfacet
  facet normal 0 0 1
    outer loop
      vertex 3.51127 129.015 1.5
      vertex 29.625 130.125 1.5
      vertex 3.68882 129.364 1.5
    endloop
  endfacet
  facet normal 0 0 1
    outer loop
      vertex 29.625 130.125 1.5
      vertex 3.68882 73.1363 1.5
      vertex 3.75 72.75 1.5
    endloop
  endfacet
  facet normal 0 0 1
    outer loop
      vertex 3.23473 128.739 1.5
      vertex 29.625 130.125 1.5
      vertex 3.51127 129.015 1.5
    endloop
  endfacet
  facet normal 0 0 1
    outer loop
      vertex 29.625 130.125 1.5
      vertex 3.51127 73.4847 1.5
      vertex 3.68882 73.1363 1.5
    endloop
  endfacet
  facet normal 0 0 1
    outer loop
      vertex 3.23473 73.7613 1.5
      vertex 29.625 130.125 1.5
      vertex 3.23473 128.739 1.5
    endloop
  endfacet
  facet normal 0 0 1
    outer loop
      vertex 29.625 130.125 1.5
      vertex 3.23473 73.7613 1.5
      vertex 3.51127 73.4847 1.5
    endloop
  endfacet
  facet normal -0 0 1
    outer loop
      vertex 2.88627 128.561 1.5
      vertex 3.23473 73.7613 1.5
      vertex 3.23473 128.739 1.5
    endloop
  endfacet
  facet normal 0 0 1
    outer loop
      vertex 2.88627 128.561 1.5
      vertex 2.88627 73.9388 1.5
      vertex 3.23473 73.7613 1.5
    endloop
  endfacet
  facet normal -0 0 1
    outer loop
      vertex 2.5 128.5 1.5
      vertex 2.88627 73.9388 1.5
      vertex 2.88627 128.561 1.5
    endloop
  endfacet
  facet normal 0 0 1
    outer loop
      vertex 2.5 128.5 1.5
      vertex 2.5 74 1.5
      vertex 2.88627 73.9388 1.5
    endloop
  endfacet
  facet normal 0 0 1
    outer loop
      vertex 2.11373 128.561 1.5
      vertex 2.5 74 1.5
      vertex 2.5 128.5 1.5
    endloop
  endfacet
  facet normal 0 0 1
    outer loop
      vertex 2.11373 128.561 1.5
      vertex 2.11373 73.9388 1.5
      vertex 2.5 74 1.5
    endloop
  endfacet
  facet normal 0 0 1
    outer loop
      vertex 1.76527 128.739 1.5
      vertex 2.11373 73.9388 1.5
      vertex 2.11373 128.561 1.5
    endloop
  endfacet
  facet normal 0 0 1
    outer loop
      vertex 1.76527 128.739 1.5
      vertex 1.76527 73.7613 1.5
      vertex 2.11373 73.9388 1.5
    endloop
  endfacet
  facet normal 0 0 1
    outer loop
      vertex 1.48873 129.015 1.5
      vertex 1.76527 73.7613 1.5
      vertex 1.76527 128.739 1.5
    endloop
  endfacet
  facet normal 0 0 1
    outer loop
      vertex 1.48873 129.015 1.5
      vertex 1.48873 73.4847 1.5
      vertex 1.76527 73.7613 1.5
    endloop
  endfacet
  facet normal 0 0 1
    outer loop
      vertex 1.31118 129.364 1.5
      vertex 1.48873 73.4847 1.5
      vertex 1.48873 129.015 1.5
    endloop
  endfacet
  facet normal 0 0 1
    outer loop
      vertex 1.31118 129.364 1.5
      vertex 1.31118 73.1363 1.5
      vertex 1.48873 73.4847 1.5
    endloop
  endfacet
  facet normal 0 0 1
    outer loop
      vertex 0.5 133.506 1.5
      vertex 1.31118 129.364 1.5
      vertex 1.25 129.75 1.5
    endloop
  endfacet
  facet normal 0 0 1
    outer loop
      vertex 1.31118 129.364 1.5
      vertex 0.5 70 1.5
      vertex 1.31118 73.1363 1.5
    endloop
  endfacet
  facet normal -0 0 1
    outer loop
      vertex 128.689 73.1363 1.5
      vertex 129.5 70 1.5
      vertex 128.689 129.364 1.5
    endloop
  endfacet
  facet normal 0 0 1
    outer loop
      vertex 129.5 70 1.5
      vertex 128.689 73.1363 1.5
      vertex 128.75 72.75 1.5
    endloop
  endfacet
  facet normal -0 0 1
    outer loop
      vertex 128.511 129.015 1.5
      vertex 128.689 73.1363 1.5
      vertex 128.689 129.364 1.5
    endloop
  endfacet
  facet normal 0 0 1
    outer loop
      vertex 128.511 129.015 1.5
      vertex 128.511 73.4847 1.5
      vertex 128.689 73.1363 1.5
    endloop
  endfacet
  facet normal -0 0 1
    outer loop
      vertex 128.235 128.739 1.5
      vertex 128.511 73.4847 1.5
      vertex 128.511 129.015 1.5
    endloop
  endfacet
  facet normal 0 0 1
    outer loop
      vertex 128.235 128.739 1.5
      vertex 128.235 73.7613 1.5
      vertex 128.511 73.4847 1.5
    endloop
  endfacet
  facet normal -0 0 1
    outer loop
      vertex 127.886 128.561 1.5
      vertex 128.235 73.7613 1.5
      vertex 128.235 128.739 1.5
    endloop
  endfacet
  facet normal 0 0 1
    outer loop
      vertex 127.886 128.561 1.5
      vertex 127.886 73.9388 1.5
      vertex 128.235 73.7613 1.5
    endloop
  endfacet
  facet normal -0 0 1
    outer loop
      vertex 127.5 128.5 1.5
      vertex 127.886 73.9388 1.5
      vertex 127.886 128.561 1.5
    endloop
  endfacet
  facet normal 0 0 1
    outer loop
      vertex 127.5 128.5 1.5
      vertex 127.5 74 1.5
      vertex 127.886 73.9388 1.5
    endloop
  endfacet
  facet normal 0 0 1
    outer loop
      vertex 127.114 128.561 1.5
      vertex 127.5 74 1.5
      vertex 127.5 128.5 1.5
    endloop
  endfacet
  facet normal 0 0 1
    outer loop
      vertex 127.114 128.561 1.5
      vertex 127.114 73.9388 1.5
      vertex 127.5 74 1.5
    endloop
  endfacet
  facet normal 0 0 1
    outer loop
      vertex 126.765 128.739 1.5
      vertex 127.114 73.9388 1.5
      vertex 127.114 128.561 1.5
    endloop
  endfacet
  facet normal 0 0 1
    outer loop
      vertex 126.765 128.739 1.5
      vertex 126.765 73.7613 1.5
      vertex 127.114 73.9388 1.5
    endloop
  endfacet
  facet normal 0 0 1
    outer loop
      vertex 100.375 130.125 1.5
      vertex 126.765 128.739 1.5
      vertex 126.489 129.015 1.5
    endloop
  endfacet
  facet normal 0 0 1
    outer loop
      vertex 126.765 128.739 1.5
      vertex 100.375 130.125 1.5
      vertex 126.765 73.7613 1.5
    endloop
  endfacet
  facet normal 0 0 1
    outer loop
      vertex 100.375 130.125 1.5
      vertex 126.489 129.015 1.5
      vertex 126.311 129.364 1.5
    endloop
  endfacet
  facet normal 0 0 1
    outer loop
      vertex 126.765 73.7613 1.5
      vertex 100.375 130.125 1.5
      vertex 126.489 73.4847 1.5
    endloop
  endfacet
  facet normal 0 0 1
    outer loop
      vertex 100.375 130.125 1.5
      vertex 126.311 129.364 1.5
      vertex 126.25 129.75 1.5
    endloop
  endfacet
  facet normal 0 0 1
    outer loop
      vertex 126.489 73.4847 1.5
      vertex 100.375 130.125 1.5
      vertex 126.311 73.1363 1.5
    endloop
  endfacet
  facet normal 0 0 1
    outer loop
      vertex 128.689 129.364 1.5
      vertex 129.5 133.506 1.5
      vertex 128.75 129.75 1.5
    endloop
  endfacet
  facet normal 0 0 1
    outer loop
      vertex 129.5 133.506 1.5
      vertex 128.689 130.136 1.5
      vertex 128.75 129.75 1.5
    endloop
  endfacet
  facet normal 0 0 1
    outer loop
      vertex 129.5 133.506 1.5
      vertex 128.511 130.485 1.5
      vertex 128.689 130.136 1.5
    endloop
  endfacet
  facet normal 0 0 1
    outer loop
      vertex 129.5 133.506 1.5
      vertex 128.235 130.761 1.5
      vertex 128.511 130.485 1.5
    endloop
  endfacet
  facet normal 0 0 1
    outer loop
      vertex 129.5 133.506 1.5
      vertex 127.886 130.939 1.5
      vertex 128.235 130.761 1.5
    endloop
  endfacet
  facet normal 0 0 1
    outer loop
      vertex 129.5 133.506 1.5
      vertex 127.5 131 1.5
      vertex 127.886 130.939 1.5
    endloop
  endfacet
  facet normal 0 0 1
    outer loop
      vertex 129.5 133.506 1.5
      vertex 127.114 130.939 1.5
      vertex 127.5 131 1.5
    endloop
  endfacet
  facet normal 0 0 1
    outer loop
      vertex 129.5 133.506 1.5
      vertex 126.765 130.761 1.5
      vertex 127.114 130.939 1.5
    endloop
  endfacet
  facet normal -0 0 1
    outer loop
      vertex 100.375 132.375 1.5
      vertex 126.765 130.761 1.5
      vertex 129.5 133.506 1.5
    endloop
  endfacet
  facet normal -0 0 1
    outer loop
      vertex 100.375 130.125 1.5
      vertex 126.25 129.75 1.5
      vertex 100.375 132.375 1.5
    endloop
  endfacet
  facet normal 0 0 1
    outer loop
      vertex 126.311 130.136 1.5
      vertex 100.375 132.375 1.5
      vertex 126.25 129.75 1.5
    endloop
  endfacet
  facet normal 0 0 1
    outer loop
      vertex 126.489 130.485 1.5
      vertex 100.375 132.375 1.5
      vertex 126.311 130.136 1.5
    endloop
  endfacet
  facet normal 0 0 1
    outer loop
      vertex 126.765 130.761 1.5
      vertex 100.375 132.375 1.5
      vertex 126.489 130.485 1.5
    endloop
  endfacet
  facet normal 0 0 1
    outer loop
      vertex 129.5 133.506 1.5
      vertex 79.625 132.375 1.5
      vertex 100.375 132.375 1.5
    endloop
  endfacet
  facet normal 0 0 1
    outer loop
      vertex 79.625 132.375 1.5
      vertex 50.375 132.375 1.5
      vertex 79.625 130.125 1.5
    endloop
  endfacet
  facet normal 0 0 1
    outer loop
      vertex 129.5 133.506 1.5
      vertex 50.375 132.375 1.5
      vertex 79.625 132.375 1.5
    endloop
  endfacet
  facet normal -0 0 1
    outer loop
      vertex 0.5 133.506 1.5
      vertex 50.375 132.375 1.5
      vertex 129.5 133.506 1.5
    endloop
  endfacet
  facet normal 0 0 1
    outer loop
      vertex 29.625 132.375 1.5
      vertex 3.75 129.75 1.5
      vertex 29.625 130.125 1.5
    endloop
  endfacet
  facet normal 0 0 1
    outer loop
      vertex 29.625 132.375 1.5
      vertex 3.68882 130.136 1.5
      vertex 3.75 129.75 1.5
    endloop
  endfacet
  facet normal 0 0 1
    outer loop
      vertex 29.625 132.375 1.5
      vertex 3.51127 130.485 1.5
      vertex 3.68882 130.136 1.5
    endloop
  endfacet
  facet normal 0 0 1
    outer loop
      vertex 29.625 132.375 1.5
      vertex 3.23473 130.761 1.5
      vertex 3.51127 130.485 1.5
    endloop
  endfacet
  facet normal 0 0 1
    outer loop
      vertex 0.5 133.506 1.5
      vertex 3.23473 130.761 1.5
      vertex 29.625 132.375 1.5
    endloop
  endfacet
  facet normal 0 0 1
    outer loop
      vertex 3.23473 130.761 1.5
      vertex 0.5 133.506 1.5
      vertex 2.88627 130.939 1.5
    endloop
  endfacet
  facet normal 0 0 1
    outer loop
      vertex 1.31118 129.364 1.5
      vertex 0.5 133.506 1.5
      vertex 0.5 70 1.5
    endloop
  endfacet
  facet normal 0 0 1
    outer loop
      vertex 1.31118 130.136 1.5
      vertex 0.5 133.506 1.5
      vertex 1.25 129.75 1.5
    endloop
  endfacet
  facet normal 0 0 1
    outer loop
      vertex 1.48873 130.485 1.5
      vertex 0.5 133.506 1.5
      vertex 1.31118 130.136 1.5
    endloop
  endfacet
  facet normal 0 0 1
    outer loop
      vertex 1.76527 130.761 1.5
      vertex 0.5 133.506 1.5
      vertex 1.48873 130.485 1.5
    endloop
  endfacet
  facet normal 0 0 1
    outer loop
      vertex 2.11373 130.939 1.5
      vertex 0.5 133.506 1.5
      vertex 1.76527 130.761 1.5
    endloop
  endfacet
  facet normal 0 0 1
    outer loop
      vertex 2.5 131 1.5
      vertex 0.5 133.506 1.5
      vertex 2.11373 130.939 1.5
    endloop
  endfacet
  facet normal 0 0 1
    outer loop
      vertex 2.88627 130.939 1.5
      vertex 0.5 133.506 1.5
      vertex 2.5 131 1.5
    endloop
  endfacet
  facet normal 0 0 1
    outer loop
      vertex 50.375 132.375 1.5
      vertex 0.5 133.506 1.5
      vertex 29.625 132.375 1.5
    endloop
  endfacet
  facet normal 0 0 1
    outer loop
      vertex 129.5 133.506 1.5
      vertex 128.689 129.364 1.5
      vertex 129.5 70 1.5
    endloop
  endfacet
  facet normal -0 0 1
    outer loop
      vertex 128.689 72.3637 1.5
      vertex 129.5 70 1.5
      vertex 128.75 72.75 1.5
    endloop
  endfacet
  facet normal -0 0 1
    outer loop
      vertex 128.511 72.0153 1.5
      vertex 129.5 70 1.5
      vertex 128.689 72.3637 1.5
    endloop
  endfacet
  facet normal -0 0 1
    outer loop
      vertex 128.235 71.7387 1.5
      vertex 129.5 70 1.5
      vertex 128.511 72.0153 1.5
    endloop
  endfacet
  facet normal -0 0 1
    outer loop
      vertex 127.886 71.5612 1.5
      vertex 129.5 70 1.5
      vertex 128.235 71.7387 1.5
    endloop
  endfacet
  facet normal -0 0 1
    outer loop
      vertex 127.5 71.5 1.5
      vertex 129.5 70 1.5
      vertex 127.886 71.5612 1.5
    endloop
  endfacet
  facet normal 0 0 1
    outer loop
      vertex 127.114 71.5612 1.5
      vertex 129.5 70 1.5
      vertex 127.5 71.5 1.5
    endloop
  endfacet
  facet normal 0 0 1
    outer loop
      vertex 126.765 71.7387 1.5
      vertex 129.5 70 1.5
      vertex 127.114 71.5612 1.5
    endloop
  endfacet
  facet normal -0 0 1
    outer loop
      vertex 79.625 130.125 1.5
      vertex 126.311 73.1363 1.5
      vertex 100.375 130.125 1.5
    endloop
  endfacet
  facet normal 0 0 1
    outer loop
      vertex 126.311 73.1363 1.5
      vertex 79.625 130.125 1.5
      vertex 126.25 72.75 1.5
    endloop
  endfacet
  facet normal -0 0 1
    outer loop
      vertex 50.375 130.125 1.5
      vertex 126.25 72.75 1.5
      vertex 79.625 130.125 1.5
    endloop
  endfacet
  facet normal 0 0 1
    outer loop
      vertex 3.75 72.75 1.5
      vertex 126.25 72.75 1.5
      vertex 50.375 130.125 1.5
    endloop
  endfacet
  facet normal 0 0 1
    outer loop
      vertex 50.375 130.125 1.5
      vertex 79.625 130.125 1.5
      vertex 50.375 132.375 1.5
    endloop
  endfacet
  facet normal 0 0 1
    outer loop
      vertex 126.25 72.75 1.5
      vertex 3.75 72.75 1.5
      vertex 126.311 72.3637 1.5
    endloop
  endfacet
  facet normal 0 0 1
    outer loop
      vertex 3.68882 72.3637 1.5
      vertex 126.311 72.3637 1.5
      vertex 3.75 72.75 1.5
    endloop
  endfacet
  facet normal 0 0 1
    outer loop
      vertex 3.75 72.75 1.5
      vertex 50.375 130.125 1.5
      vertex 29.625 130.125 1.5
    endloop
  endfacet
  facet normal 0 0 1
    outer loop
      vertex 126.311 72.3637 1.5
      vertex 3.68882 72.3637 1.5
      vertex 126.489 72.0153 1.5
    endloop
  endfacet
  facet normal 0 0 1
    outer loop
      vertex 3.68882 129.364 1.5
      vertex 29.625 130.125 1.5
      vertex 3.75 129.75 1.5
    endloop
  endfacet
  facet normal 0 0 1
    outer loop
      vertex 3.51127 72.0153 1.5
      vertex 126.489 72.0153 1.5
      vertex 3.68882 72.3637 1.5
    endloop
  endfacet
  facet normal 0 0 1
    outer loop
      vertex 126.489 72.0153 1.5
      vertex 3.51127 72.0153 1.5
      vertex 126.765 71.7387 1.5
    endloop
  endfacet
  facet normal 0 0 1
    outer loop
      vertex 3.23473 71.7387 1.5
      vertex 126.765 71.7387 1.5
      vertex 3.51127 72.0153 1.5
    endloop
  endfacet
  facet normal 0 0 1
    outer loop
      vertex 126.765 71.7387 1.5
      vertex 3.23473 71.7387 1.5
      vertex 129.5 70 1.5
    endloop
  endfacet
  facet normal 0 0 1
    outer loop
      vertex 0.5 70 1.5
      vertex 3.23473 71.7387 1.5
      vertex 2.88627 71.5612 1.5
    endloop
  endfacet
  facet normal 0 0 1
    outer loop
      vertex 0.5 70 1.5
      vertex 2.88627 71.5612 1.5
      vertex 2.5 71.5 1.5
    endloop
  endfacet
  facet normal 0 0 1
    outer loop
      vertex 3.23473 71.7387 1.5
      vertex 0.5 70 1.5
      vertex 129.5 70 1.5
    endloop
  endfacet
  facet normal 0 0 1
    outer loop
      vertex 2.11373 71.5612 1.5
      vertex 0.5 70 1.5
      vertex 2.5 71.5 1.5
    endloop
  endfacet
  facet normal 0 0 1
    outer loop
      vertex 1.76527 71.7387 1.5
      vertex 0.5 70 1.5
      vertex 2.11373 71.5612 1.5
    endloop
  endfacet
  facet normal 0 0 1
    outer loop
      vertex 1.48873 72.0153 1.5
      vertex 0.5 70 1.5
      vertex 1.76527 71.7387 1.5
    endloop
  endfacet
  facet normal 0 0 1
    outer loop
      vertex 1.31118 72.3637 1.5
      vertex 0.5 70 1.5
      vertex 1.48873 72.0153 1.5
    endloop
  endfacet
  facet normal 0 0 1
    outer loop
      vertex 1.25 72.75 1.5
      vertex 0.5 70 1.5
      vertex 1.31118 72.3637 1.5
    endloop
  endfacet
  facet normal 0 0 1
    outer loop
      vertex 1.31118 73.1363 1.5
      vertex 0.5 70 1.5
      vertex 1.25 72.75 1.5
    endloop
  endfacet
  facet normal 0 1 -0
    outer loop
      vertex 80 70 38.4033
      vertex 50 70 43.5967
      vertex 80 70 43.5967
    endloop
  endfacet
  facet normal 0 1 0
    outer loop
      vertex 50 70 43.5967
      vertex 80 70 38.4033
      vertex 50 70 38.4033
    endloop
  endfacet
  facet normal 0 1 0
    outer loop
      vertex 80 70 43.5967
      vertex 129.5 70 44.5
      vertex 100 70 43.5967
    endloop
  endfacet
  facet normal 0 1 -0
    outer loop
      vertex 112 70 35
      vertex 100 70 43.5967
      vertex 129.5 70 44.5
    endloop
  endfacet
  facet normal 0 1 0
    outer loop
      vertex 102 70 27
      vertex 80 70 38.4033
      vertex 100 70 38.4033
    endloop
  endfacet
  facet normal 0 1 0
    outer loop
      vertex 80 70 38.4033
      vertex 102 70 27
      vertex 50 70 38.4033
    endloop
  endfacet
  facet normal 0 1 -0
    outer loop
      vertex 102 70 35
      vertex 100 70 38.4033
      vertex 112 70 35
    endloop
  endfacet
  facet normal 0 1 0
    outer loop
      vertex 100 70 43.5967
      vertex 112 70 35
      vertex 100 70 38.4033
    endloop
  endfacet
  facet normal 0 1 0
    outer loop
      vertex 129.5 70 44.5
      vertex 112 70 27
      vertex 112 70 35
    endloop
  endfacet
  facet normal 0 1 0
    outer loop
      vertex 112 70 27
      vertex 129.5 70 1.5
      vertex 102 70 27
    endloop
  endfacet
  facet normal 0 1 -0
    outer loop
      vertex 129.5 70 1.5
      vertex 112 70 27
      vertex 129.5 70 44.5
    endloop
  endfacet
  facet normal 0 1 0
    outer loop
      vertex 129.5 70 44.5
      vertex 80 70 43.5967
      vertex 0.5 70 44.5
    endloop
  endfacet
  facet normal 0 1 -0
    outer loop
      vertex 50 70 43.5967
      vertex 0.5 70 44.5
      vertex 80 70 43.5967
    endloop
  endfacet
  facet normal 0 1 -0
    outer loop
      vertex 30 70 43.5967
      vertex 0.5 70 44.5
      vertex 50 70 43.5967
    endloop
  endfacet
  facet normal 0 1 -0
    outer loop
      vertex 30 70 38.4033
      vertex 0.5 70 44.5
      vertex 30 70 43.5967
    endloop
  endfacet
  facet normal 0 1 -0
    outer loop
      vertex 102 70 27
      vertex 100 70 38.4033
      vertex 102 70 35
    endloop
  endfacet
  facet normal 0 1 0
    outer loop
      vertex 0.5 70 1.5
      vertex 50 70 38.4033
      vertex 102 70 27
    endloop
  endfacet
  facet normal 0 1 0
    outer loop
      vertex 0.5 70 1.5
      vertex 102 70 27
      vertex 129.5 70 1.5
    endloop
  endfacet
  facet normal 0 1 0
    outer loop
      vertex 50 70 38.4033
      vertex 0.5 70 1.5
      vertex 30 70 38.4033
    endloop
  endfacet
  facet normal 0 1 0
    outer loop
      vertex 30 70 38.4033
      vertex 0.5 70 1.5
      vertex 0.5 70 44.5
    endloop
  endfacet
  facet normal -1 0 0
    outer loop
      vertex 0.5 133.448 1.0608
      vertex 0.5 133.506 1.5
      vertex 0.5 133.506 1.3517
    endloop
  endfacet
  facet normal -1 0 0
    outer loop
      vertex 0.5 133.334 0.786777
      vertex 0.5 133.506 1.5
      vertex 0.5 133.448 1.0608
    endloop
  endfacet
  facet normal -1 0 0
    outer loop
      vertex 0.5 133.17 0.540163
      vertex 0.5 133.506 1.5
      vertex 0.5 133.334 0.786777
    endloop
  endfacet
  facet normal -1 0 0
    outer loop
      vertex 0.5 132.96 0.330436
      vertex 0.5 133.506 1.5
      vertex 0.5 133.17 0.540163
    endloop
  endfacet
  facet normal -1 0 0
    outer loop
      vertex 0.5 132.713 0.165653
      vertex 0.5 133.506 1.5
      vertex 0.5 132.96 0.330436
    endloop
  endfacet
  facet normal -1 0 0
    outer loop
      vertex 0.5 132.439 0.0521498
      vertex 0.5 133.506 1.5
      vertex 0.5 132.713 0.165653
    endloop
  endfacet
  facet normal -1 0 0
    outer loop
      vertex 0.5 132.148 -0.00571442
      vertex 0.5 133.506 1.5
      vertex 0.5 132.439 0.0521498
    endloop
  endfacet
  facet normal -1 0 0
    outer loop
      vertex 0.5 132.148 -0.00571442
      vertex 0.5 70 1.5
      vertex 0.5 133.506 1.5
    endloop
  endfacet
  facet normal -1 0 0
    outer loop
      vertex 0.5 69.8517 -0.00571442
      vertex 0.5 70 1.5
      vertex 0.5 132.148 -0.00571442
    endloop
  endfacet
  facet normal -1 0 0
    outer loop
      vertex 0.5 69.5608 0.0521498
      vertex 0.5 70 1.5
      vertex 0.5 69.8517 -0.00571442
    endloop
  endfacet
  facet normal -1 0 0
    outer loop
      vertex 0.5 69.2868 0.165653
      vertex 0.5 70 1.5
      vertex 0.5 69.5608 0.0521498
    endloop
  endfacet
  facet normal -1 0 0
    outer loop
      vertex 0.5 69.0402 0.330436
      vertex 0.5 70 1.5
      vertex 0.5 69.2868 0.165653
    endloop
  endfacet
  facet normal -1 0 0
    outer loop
      vertex 0.5 68.8304 0.540163
      vertex 0.5 70 1.5
      vertex 0.5 69.0402 0.330436
    endloop
  endfacet
  facet normal -1 0 0
    outer loop
      vertex 0.5 68.6657 0.786777
      vertex 0.5 70 1.5
      vertex 0.5 68.8304 0.540163
    endloop
  endfacet
  facet normal -1 0 0
    outer loop
      vertex 0.5 68.5521 1.0608
      vertex 0.5 70 1.5
      vertex 0.5 68.6657 0.786777
    endloop
  endfacet
  facet normal -1 0 0
    outer loop
      vertex 0.5 70 1.5
      vertex 0.5 68.5521 1.0608
      vertex 0.5 68.4943 1.3517
    endloop
  endfacet
  facet normal -1 0 0
    outer loop
      vertex 0.5 68.4943 44.5
      vertex 0.5 70 1.5
      vertex 0.5 68.4943 1.3517
    endloop
  endfacet
  facet normal -1 0 0
    outer loop
      vertex 0.5 70 1.5
      vertex 0.5 68.4943 44.5
      vertex 0.5 70 44.5
    endloop
  endfacet
  facet normal 1 -0 0
    outer loop
      vertex 129.5 68.4943 44.5
      vertex 129.5 70 1.5
      vertex 129.5 70 44.5
    endloop
  endfacet
  facet normal 1 0 -0
    outer loop
      vertex 129.5 68.5521 1.0608
      vertex 129.5 70 1.5
      vertex 129.5 68.4943 1.3517
    endloop
  endfacet
  facet normal 1 0 0
    outer loop
      vertex 129.5 70 1.5
      vertex 129.5 69.5608 0.0521498
      vertex 129.5 69.8517 -0.00571442
    endloop
  endfacet
  facet normal 1 0 0
    outer loop
      vertex 129.5 70 1.5
      vertex 129.5 69.2868 0.165653
      vertex 129.5 69.5608 0.0521498
    endloop
  endfacet
  facet normal 1 0 0
    outer loop
      vertex 129.5 70 1.5
      vertex 129.5 69.0402 0.330436
      vertex 129.5 69.2868 0.165653
    endloop
  endfacet
  facet normal 1 0 0
    outer loop
      vertex 129.5 70 1.5
      vertex 129.5 68.8304 0.540163
      vertex 129.5 69.0402 0.330436
    endloop
  endfacet
  facet normal 1 0 0
    outer loop
      vertex 129.5 70 1.5
      vertex 129.5 68.6656 0.786777
      vertex 129.5 68.8304 0.540163
    endloop
  endfacet
  facet normal 1 0 0
    outer loop
      vertex 129.5 70 1.5
      vertex 129.5 68.4943 44.5
      vertex 129.5 68.4943 1.3517
    endloop
  endfacet
  facet normal 1 0 0
    outer loop
      vertex 129.5 70 1.5
      vertex 129.5 68.5521 1.0608
      vertex 129.5 68.6656 0.786777
    endloop
  endfacet
  facet normal 1 0 0
    outer loop
      vertex 129.5 133.506 1.5
      vertex 129.5 133.448 1.0608
      vertex 129.5 133.506 1.3517
    endloop
  endfacet
  facet normal 1 0 0
    outer loop
      vertex 129.5 133.506 1.5
      vertex 129.5 133.334 0.786777
      vertex 129.5 133.448 1.0608
    endloop
  endfacet
  facet normal 1 0 0
    outer loop
      vertex 129.5 133.506 1.5
      vertex 129.5 133.17 0.540163
      vertex 129.5 133.334 0.786777
    endloop
  endfacet
  facet normal 1 0 0
    outer loop
      vertex 129.5 133.506 1.5
      vertex 129.5 132.96 0.330436
      vertex 129.5 133.17 0.540163
    endloop
  endfacet
  facet normal 1 0 0
    outer loop
      vertex 129.5 133.506 1.5
      vertex 129.5 132.713 0.165653
      vertex 129.5 132.96 0.330436
    endloop
  endfacet
  facet normal 1 0 0
    outer loop
      vertex 129.5 133.506 1.5
      vertex 129.5 132.439 0.0521498
      vertex 129.5 132.713 0.165653
    endloop
  endfacet
  facet normal 1 0 0
    outer loop
      vertex 129.5 133.506 1.5
      vertex 129.5 132.148 -0.00571442
      vertex 129.5 132.439 0.0521498
    endloop
  endfacet
  facet normal 1 -0 0
    outer loop
      vertex 129.5 70 1.5
      vertex 129.5 132.148 -0.00571442
      vertex 129.5 133.506 1.5
    endloop
  endfacet
  facet normal 1 0 0
    outer loop
      vertex 129.5 132.148 -0.00571442
      vertex 129.5 70 1.5
      vertex 129.5 69.8517 -0.00571442
    endloop
  endfacet
  facet normal -0 0 1
    outer loop
      vertex 0.5 70 44.5
      vertex 129.5 68.4943 44.5
      vertex 129.5 70 44.5
    endloop
  endfacet
  facet normal 0 0 1
    outer loop
      vertex 129.5 68.4943 44.5
      vertex 0.5 70 44.5
      vertex 0.5 68.4943 44.5
    endloop
  endfacet
  facet normal -1 0 0
    outer loop
      vertex 112 68.4943 27
      vertex 112 70 35
      vertex 112 70 27
    endloop
  endfacet
  facet normal -1 -0 0
    outer loop
      vertex 112 70 35
      vertex 112 68.4943 27
      vertex 112 68.4943 35
    endloop
  endfacet
  facet normal -0 0 1
    outer loop
      vertex 102 70 27
      vertex 112 68.4943 27
      vertex 112 70 27
    endloop
  endfacet
  facet normal 0 0 1
    outer loop
      vertex 112 68.4943 27
      vertex 102 70 27
      vertex 102 68.4943 27
    endloop
  endfacet
  facet normal 1 -0 0
    outer loop
      vertex 102 68.4943 35
      vertex 102 70 27
      vertex 102 70 35
    endloop
  endfacet
  facet normal 1 0 0
    outer loop
      vertex 102 70 27
      vertex 102 68.4943 35
      vertex 102 68.4943 27
    endloop
  endfacet
  facet normal 0 0 -1
    outer loop
      vertex 102 68.4943 35
      vertex 112 70 35
      vertex 112 68.4943 35
    endloop
  endfacet
  facet normal -0 0 -1
    outer loop
      vertex 112 70 35
      vertex 102 68.4943 35
      vertex 102 70 35
    endloop
  endfacet
  facet normal -1 0 0
    outer loop
      vertex 100.375 132.148 -0.00571442
      vertex 100.375 132.375 1.5
      vertex 100.375 132.375 0.0393794
    endloop
  endfacet
  facet normal -1 0 0
    outer loop
      vertex 100.375 130.125 1.5
      vertex 100.375 132.148 -0.00571442
      vertex 100.375 130.125 -0.00571442
    endloop
  endfacet
  facet normal -1 0 0
    outer loop
      vertex 100.375 132.148 -0.00571442
      vertex 100.375 130.125 1.5
      vertex 100.375 132.375 1.5
    endloop
  endfacet
  facet normal 1 0 0
    outer loop
      vertex 79.625 132.375 1.5
      vertex 79.625 132.148 -0.00571442
      vertex 79.625 132.375 0.0393794
    endloop
  endfacet
  facet normal 1 -0 0
    outer loop
      vertex 79.625 130.125 1.5
      vertex 79.625 132.148 -0.00571442
      vertex 79.625 132.375 1.5
    endloop
  endfacet
  facet normal 1 0 0
    outer loop
      vertex 79.625 132.148 -0.00571442
      vertex 79.625 130.125 1.5
      vertex 79.625 130.125 -0.00571442
    endloop
  endfacet
  facet normal 0 -1 0
    outer loop
      vertex 79.625 132.375 0.0393794
      vertex 100.375 132.375 1.5
      vertex 79.625 132.375 1.5
    endloop
  endfacet
  facet normal 0 -1 -0
    outer loop
      vertex 100.375 132.375 1.5
      vertex 79.625 132.375 0.0393794
      vertex 100.375 132.375 0.0393794
    endloop
  endfacet
  facet normal 0 1 -0
    outer loop
      vertex 100.375 130.125 -0.00571442
      vertex 79.625 130.125 1.5
      vertex 100.375 130.125 1.5
    endloop
  endfacet
  facet normal 0 1 0
    outer loop
      vertex 79.625 130.125 1.5
      vertex 100.375 130.125 -0.00571442
      vertex 79.625 130.125 -0.00571442
    endloop
  endfacet
  facet normal -1 0 0
    outer loop
      vertex 50.375 132.148 -0.00571442
      vertex 50.375 132.375 1.5
      vertex 50.375 132.375 0.0393794
    endloop
  endfacet
  facet normal -1 0 0
    outer loop
      vertex 50.375 130.125 1.5
      vertex 50.375 132.148 -0.00571442
      vertex 50.375 130.125 -0.00571442
    endloop
  endfacet
  facet normal -1 0 0
    outer loop
      vertex 50.375 132.148 -0.00571442
      vertex 50.375 130.125 1.5
      vertex 50.375 132.375 1.5
    endloop
  endfacet
  facet normal 1 0 0
    outer loop
      vertex 29.625 132.375 1.5
      vertex 29.625 132.148 -0.00571442
      vertex 29.625 132.375 0.0393794
    endloop
  endfacet
  facet normal 1 -0 0
    outer loop
      vertex 29.625 130.125 1.5
      vertex 29.625 132.148 -0.00571442
      vertex 29.625 132.375 1.5
    endloop
  endfacet
  facet normal 1 0 0
    outer loop
      vertex 29.625 132.148 -0.00571442
      vertex 29.625 130.125 1.5
      vertex 29.625 130.125 -0.00571442
    endloop
  endfacet
  facet normal 0 1 -0
    outer loop
      vertex 50.375 130.125 -0.00571442
      vertex 29.625 130.125 1.5
      vertex 50.375 130.125 1.5
    endloop
  endfacet
  facet normal 0 1 0
    outer loop
      vertex 29.625 130.125 1.5
      vertex 50.375 130.125 -0.00571442
      vertex 29.625 130.125 -0.00571442
    endloop
  endfacet
  facet normal 0 -1 0
    outer loop
      vertex 29.625 132.375 0.0393794
      vertex 50.375 132.375 1.5
      vertex 29.625 132.375 1.5
    endloop
  endfacet
  facet normal 0 -1 -0
    outer loop
      vertex 50.375 132.375 1.5
      vertex 29.625 132.375 0.0393794
      vertex 50.375 132.375 0.0393794
    endloop
  endfacet
  facet normal 0.987761 -0.155976 0
    outer loop
      vertex 126.25 72.75 1.5
      vertex 126.311 73.1363 -0.00571442
      vertex 126.311 73.1363 1.5
    endloop
  endfacet
  facet normal 0.987761 -0.155976 0
    outer loop
      vertex 126.311 73.1363 -0.00571442
      vertex 126.25 72.75 1.5
      vertex 126.25 72.75 -0.00571442
    endloop
  endfacet
  facet normal -0.987761 0.155976 0
    outer loop
      vertex 128.689 72.3637 -0.00571442
      vertex 128.75 72.75 1.5
      vertex 128.75 72.75 -0.00571442
    endloop
  endfacet
  facet normal -0.987761 0.155976 0
    outer loop
      vertex 128.75 72.75 1.5
      vertex 128.689 72.3637 -0.00571442
      vertex 128.689 72.3637 1.5
    endloop
  endfacet
  facet normal -0.156593 -0.987663 0
    outer loop
      vertex 127.5 74 -0.00571442
      vertex 127.886 73.9388 1.5
      vertex 127.5 74 1.5
    endloop
  endfacet
  facet normal -0.156593 -0.987663 -0
    outer loop
      vertex 127.886 73.9388 1.5
      vertex 127.5 74 -0.00571442
      vertex 127.886 73.9388 -0.00571442
    endloop
  endfacet
  facet normal 0.156593 0.987663 -0
    outer loop
      vertex 127.5 71.5 -0.00571442
      vertex 127.114 71.5612 1.5
      vertex 127.5 71.5 1.5
    endloop
  endfacet
  facet normal 0.156593 0.987663 0
    outer loop
      vertex 127.114 71.5612 1.5
      vertex 127.5 71.5 -0.00571442
      vertex 127.114 71.5612 -0.00571442
    endloop
  endfacet
  facet normal 0.453333 0.891341 -0
    outer loop
      vertex 127.114 71.5612 -0.00571442
      vertex 126.765 71.7387 1.5
      vertex 127.114 71.5612 1.5
    endloop
  endfacet
  facet normal 0.453333 0.891341 0
    outer loop
      vertex 126.765 71.7387 1.5
      vertex 127.114 71.5612 -0.00571442
      vertex 126.765 71.7387 -0.00571442
    endloop
  endfacet
  facet normal 0.707874 -0.706339 0
    outer loop
      vertex 126.489 73.4847 1.5
      vertex 126.765 73.7613 -0.00571442
      vertex 126.765 73.7613 1.5
    endloop
  endfacet
  facet normal 0.707874 -0.706339 0
    outer loop
      vertex 126.765 73.7613 -0.00571442
      vertex 126.489 73.4847 1.5
      vertex 126.489 73.4847 -0.00571442
    endloop
  endfacet
  facet normal 0.890508 -0.454967 0
    outer loop
      vertex 126.311 73.1363 1.5
      vertex 126.489 73.4847 -0.00571442
      vertex 126.489 73.4847 1.5
    endloop
  endfacet
  facet normal 0.890508 -0.454967 0
    outer loop
      vertex 126.489 73.4847 -0.00571442
      vertex 126.311 73.1363 1.5
      vertex 126.311 73.1363 -0.00571442
    endloop
  endfacet
  facet normal -0.707874 -0.706339 0
    outer loop
      vertex 128.235 73.7613 -0.00571442
      vertex 128.511 73.4847 1.5
      vertex 128.235 73.7613 1.5
    endloop
  endfacet
  facet normal -0.707874 -0.706339 -0
    outer loop
      vertex 128.511 73.4847 1.5
      vertex 128.235 73.7613 -0.00571442
      vertex 128.511 73.4847 -0.00571442
    endloop
  endfacet
  facet normal -0.890508 -0.454967 0
    outer loop
      vertex 128.689 73.1363 -0.00571442
      vertex 128.511 73.4847 1.5
      vertex 128.511 73.4847 -0.00571442
    endloop
  endfacet
  facet normal -0.890508 -0.454967 0
    outer loop
      vertex 128.511 73.4847 1.5
      vertex 128.689 73.1363 -0.00571442
      vertex 128.689 73.1363 1.5
    endloop
  endfacet
  facet normal -0.453333 -0.891341 0
    outer loop
      vertex 127.886 73.9388 -0.00571442
      vertex 128.235 73.7613 1.5
      vertex 127.886 73.9388 1.5
    endloop
  endfacet
  facet normal -0.453333 -0.891341 -0
    outer loop
      vertex 128.235 73.7613 1.5
      vertex 127.886 73.9388 -0.00571442
      vertex 128.235 73.7613 -0.00571442
    endloop
  endfacet
  facet normal -0.453333 0.891341 0
    outer loop
      vertex 128.235 71.7387 -0.00571442
      vertex 127.886 71.5612 1.5
      vertex 128.235 71.7387 1.5
    endloop
  endfacet
  facet normal -0.453333 0.891341 0
    outer loop
      vertex 127.886 71.5612 1.5
      vertex 128.235 71.7387 -0.00571442
      vertex 127.886 71.5612 -0.00571442
    endloop
  endfacet
  facet normal -0.890508 0.454967 0
    outer loop
      vertex 128.511 72.0153 -0.00571442
      vertex 128.689 72.3637 1.5
      vertex 128.689 72.3637 -0.00571442
    endloop
  endfacet
  facet normal -0.890508 0.454967 0
    outer loop
      vertex 128.689 72.3637 1.5
      vertex 128.511 72.0153 -0.00571442
      vertex 128.511 72.0153 1.5
    endloop
  endfacet
  facet normal 0.156593 -0.987663 0
    outer loop
      vertex 127.114 73.9388 -0.00571442
      vertex 127.5 74 1.5
      vertex 127.114 73.9388 1.5
    endloop
  endfacet
  facet normal 0.156593 -0.987663 0
    outer loop
      vertex 127.5 74 1.5
      vertex 127.114 73.9388 -0.00571442
      vertex 127.5 74 -0.00571442
    endloop
  endfacet
  facet normal 0.453333 -0.891341 0
    outer loop
      vertex 126.765 73.7613 -0.00571442
      vertex 127.114 73.9388 1.5
      vertex 126.765 73.7613 1.5
    endloop
  endfacet
  facet normal 0.453333 -0.891341 0
    outer loop
      vertex 127.114 73.9388 1.5
      vertex 126.765 73.7613 -0.00571442
      vertex 127.114 73.9388 -0.00571442
    endloop
  endfacet
  facet normal -0.987761 -0.155976 0
    outer loop
      vertex 128.75 72.75 -0.00571442
      vertex 128.689 73.1363 1.5
      vertex 128.689 73.1363 -0.00571442
    endloop
  endfacet
  facet normal -0.987761 -0.155976 0
    outer loop
      vertex 128.689 73.1363 1.5
      vertex 128.75 72.75 -0.00571442
      vertex 128.75 72.75 1.5
    endloop
  endfacet
  facet normal 0.707874 0.706339 0
    outer loop
      vertex 126.765 71.7387 1.5
      vertex 126.489 72.0153 -0.00571442
      vertex 126.489 72.0153 1.5
    endloop
  endfacet
  facet normal 0.707874 0.706339 0
    outer loop
      vertex 126.489 72.0153 -0.00571442
      vertex 126.765 71.7387 1.5
      vertex 126.765 71.7387 -0.00571442
    endloop
  endfacet
  facet normal 0.890508 0.454967 0
    outer loop
      vertex 126.489 72.0153 1.5
      vertex 126.311 72.3637 -0.00571442
      vertex 126.311 72.3637 1.5
    endloop
  endfacet
  facet normal 0.890508 0.454967 0
    outer loop
      vertex 126.311 72.3637 -0.00571442
      vertex 126.489 72.0153 1.5
      vertex 126.489 72.0153 -0.00571442
    endloop
  endfacet
  facet normal -0.156593 0.987663 0
    outer loop
      vertex 127.886 71.5612 -0.00571442
      vertex 127.5 71.5 1.5
      vertex 127.886 71.5612 1.5
    endloop
  endfacet
  facet normal -0.156593 0.987663 0
    outer loop
      vertex 127.5 71.5 1.5
      vertex 127.886 71.5612 -0.00571442
      vertex 127.5 71.5 -0.00571442
    endloop
  endfacet
  facet normal -0.707874 0.706339 0
    outer loop
      vertex 128.511 72.0153 -0.00571442
      vertex 128.235 71.7387 1.5
      vertex 128.511 72.0153 1.5
    endloop
  endfacet
  facet normal -0.707874 0.706339 0
    outer loop
      vertex 128.235 71.7387 1.5
      vertex 128.511 72.0153 -0.00571442
      vertex 128.235 71.7387 -0.00571442
    endloop
  endfacet
  facet normal 0.987761 0.155976 0
    outer loop
      vertex 126.311 72.3637 1.5
      vertex 126.25 72.75 -0.00571442
      vertex 126.25 72.75 1.5
    endloop
  endfacet
  facet normal 0.987761 0.155976 0
    outer loop
      vertex 126.25 72.75 -0.00571442
      vertex 126.311 72.3637 1.5
      vertex 126.311 72.3637 -0.00571442
    endloop
  endfacet
  facet normal 0.98769 -0.156425 0
    outer loop
      vertex 1.25 72.75 1.5
      vertex 1.31118 73.1363 -0.00571442
      vertex 1.31118 73.1363 1.5
    endloop
  endfacet
  facet normal 0.98769 -0.156425 0
    outer loop
      vertex 1.31118 73.1363 -0.00571442
      vertex 1.25 72.75 1.5
      vertex 1.25 72.75 -0.00571442
    endloop
  endfacet
  facet normal -0.98769 0.156425 0
    outer loop
      vertex 3.68882 72.3637 -0.00571442
      vertex 3.75 72.75 1.5
      vertex 3.75 72.75 -0.00571442
    endloop
  endfacet
  facet normal -0.98769 0.156425 0
    outer loop
      vertex 3.75 72.75 1.5
      vertex 3.68882 72.3637 -0.00571442
      vertex 3.68882 72.3637 1.5
    endloop
  endfacet
  facet normal -0.156486 -0.98768 0
    outer loop
      vertex 2.5 74 -0.00571442
      vertex 2.88627 73.9388 1.5
      vertex 2.5 74 1.5
    endloop
  endfacet
  facet normal -0.156486 -0.98768 -0
    outer loop
      vertex 2.88627 73.9388 1.5
      vertex 2.5 74 -0.00571442
      vertex 2.88627 73.9388 -0.00571442
    endloop
  endfacet
  facet normal 0.156486 0.98768 -0
    outer loop
      vertex 2.5 71.5 -0.00571442
      vertex 2.11373 71.5612 1.5
      vertex 2.5 71.5 1.5
    endloop
  endfacet
  facet normal 0.156486 0.98768 0
    outer loop
      vertex 2.11373 71.5612 1.5
      vertex 2.5 71.5 -0.00571442
      vertex 2.11373 71.5612 -0.00571442
    endloop
  endfacet
  facet normal 0.453891 0.891057 -0
    outer loop
      vertex 2.11373 71.5612 -0.00571442
      vertex 1.76527 71.7387 1.5
      vertex 2.11373 71.5612 1.5
    endloop
  endfacet
  facet normal 0.453891 0.891057 0
    outer loop
      vertex 1.76527 71.7387 1.5
      vertex 2.11373 71.5612 -0.00571442
      vertex 1.76527 71.7387 -0.00571442
    endloop
  endfacet
  facet normal 0.707183 -0.70703 0
    outer loop
      vertex 1.48873 73.4847 -0.00571442
      vertex 1.76527 73.7613 1.5
      vertex 1.48873 73.4847 1.5
    endloop
  endfacet
  facet normal 0.707183 -0.70703 0
    outer loop
      vertex 1.76527 73.7613 1.5
      vertex 1.48873 73.4847 -0.00571442
      vertex 1.76527 73.7613 -0.00571442
    endloop
  endfacet
  facet normal 0.890974 -0.454054 0
    outer loop
      vertex 1.31118 73.1363 1.5
      vertex 1.48873 73.4847 -0.00571442
      vertex 1.48873 73.4847 1.5
    endloop
  endfacet
  facet normal 0.890974 -0.454054 0
    outer loop
      vertex 1.48873 73.4847 -0.00571442
      vertex 1.31118 73.1363 1.5
      vertex 1.31118 73.1363 -0.00571442
    endloop
  endfacet
  facet normal -0.707183 -0.70703 0
    outer loop
      vertex 3.23473 73.7613 -0.00571442
      vertex 3.51127 73.4847 1.5
      vertex 3.23473 73.7613 1.5
    endloop
  endfacet
  facet normal -0.707183 -0.70703 -0
    outer loop
      vertex 3.51127 73.4847 1.5
      vertex 3.23473 73.7613 -0.00571442
      vertex 3.51127 73.4847 -0.00571442
    endloop
  endfacet
  facet normal -0.890974 -0.454054 0
    outer loop
      vertex 3.68882 73.1363 -0.00571442
      vertex 3.51127 73.4847 1.5
      vertex 3.51127 73.4847 -0.00571442
    endloop
  endfacet
  facet normal -0.890974 -0.454054 0
    outer loop
      vertex 3.51127 73.4847 1.5
      vertex 3.68882 73.1363 -0.00571442
      vertex 3.68882 73.1363 1.5
    endloop
  endfacet
  facet normal -0.453891 -0.891057 0
    outer loop
      vertex 2.88627 73.9388 -0.00571442
      vertex 3.23473 73.7613 1.5
      vertex 2.88627 73.9388 1.5
    endloop
  endfacet
  facet normal -0.453891 -0.891057 -0
    outer loop
      vertex 3.23473 73.7613 1.5
      vertex 2.88627 73.9388 -0.00571442
      vertex 3.23473 73.7613 -0.00571442
    endloop
  endfacet
  facet normal -0.453891 0.891057 0
    outer loop
      vertex 3.23473 71.7387 -0.00571442
      vertex 2.88627 71.5612 1.5
      vertex 3.23473 71.7387 1.5
    endloop
  endfacet
  facet normal -0.453891 0.891057 0
    outer loop
      vertex 2.88627 71.5612 1.5
      vertex 3.23473 71.7387 -0.00571442
      vertex 2.88627 71.5612 -0.00571442
    endloop
  endfacet
  facet normal -0.890974 0.454054 0
    outer loop
      vertex 3.51127 72.0153 -0.00571442
      vertex 3.68882 72.3637 1.5
      vertex 3.68882 72.3637 -0.00571442
    endloop
  endfacet
  facet normal -0.890974 0.454054 0
    outer loop
      vertex 3.68882 72.3637 1.5
      vertex 3.51127 72.0153 -0.00571442
      vertex 3.51127 72.0153 1.5
    endloop
  endfacet
  facet normal 0.156486 -0.98768 0
    outer loop
      vertex 2.11373 73.9388 -0.00571442
      vertex 2.5 74 1.5
      vertex 2.11373 73.9388 1.5
    endloop
  endfacet
  facet normal 0.156486 -0.98768 0
    outer loop
      vertex 2.5 74 1.5
      vertex 2.11373 73.9388 -0.00571442
      vertex 2.5 74 -0.00571442
    endloop
  endfacet
  facet normal 0.453891 -0.891057 0
    outer loop
      vertex 1.76527 73.7613 -0.00571442
      vertex 2.11373 73.9388 1.5
      vertex 1.76527 73.7613 1.5
    endloop
  endfacet
  facet normal 0.453891 -0.891057 0
    outer loop
      vertex 2.11373 73.9388 1.5
      vertex 1.76527 73.7613 -0.00571442
      vertex 2.11373 73.9388 -0.00571442
    endloop
  endfacet
  facet normal -0.98769 -0.156425 0
    outer loop
      vertex 3.75 72.75 -0.00571442
      vertex 3.68882 73.1363 1.5
      vertex 3.68882 73.1363 -0.00571442
    endloop
  endfacet
  facet normal -0.98769 -0.156425 0
    outer loop
      vertex 3.68882 73.1363 1.5
      vertex 3.75 72.75 -0.00571442
      vertex 3.75 72.75 1.5
    endloop
  endfacet
  facet normal 0.98769 0.156425 0
    outer loop
      vertex 1.31118 72.3637 1.5
      vertex 1.25 72.75 -0.00571442
      vertex 1.25 72.75 1.5
    endloop
  endfacet
  facet normal 0.98769 0.156425 0
    outer loop
      vertex 1.25 72.75 -0.00571442
      vertex 1.31118 72.3637 1.5
      vertex 1.31118 72.3637 -0.00571442
    endloop
  endfacet
  facet normal 0.707183 0.70703 -0
    outer loop
      vertex 1.76527 71.7387 -0.00571442
      vertex 1.48873 72.0153 1.5
      vertex 1.76527 71.7387 1.5
    endloop
  endfacet
  facet normal 0.707183 0.70703 0
    outer loop
      vertex 1.48873 72.0153 1.5
      vertex 1.76527 71.7387 -0.00571442
      vertex 1.48873 72.0153 -0.00571442
    endloop
  endfacet
  facet normal 0.890974 0.454054 0
    outer loop
      vertex 1.48873 72.0153 1.5
      vertex 1.31118 72.3637 -0.00571442
      vertex 1.31118 72.3637 1.5
    endloop
  endfacet
  facet normal 0.890974 0.454054 0
    outer loop
      vertex 1.31118 72.3637 -0.00571442
      vertex 1.48873 72.0153 1.5
      vertex 1.48873 72.0153 -0.00571442
    endloop
  endfacet
  facet normal -0.156486 0.98768 0
    outer loop
      vertex 2.88627 71.5612 -0.00571442
      vertex 2.5 71.5 1.5
      vertex 2.88627 71.5612 1.5
    endloop
  endfacet
  facet normal -0.156486 0.98768 0
    outer loop
      vertex 2.5 71.5 1.5
      vertex 2.88627 71.5612 -0.00571442
      vertex 2.5 71.5 -0.00571442
    endloop
  endfacet
  facet normal -0.707183 0.70703 0
    outer loop
      vertex 3.51127 72.0153 -0.00571442
      vertex 3.23473 71.7387 1.5
      vertex 3.51127 72.0153 1.5
    endloop
  endfacet
  facet normal -0.707183 0.70703 0
    outer loop
      vertex 3.23473 71.7387 1.5
      vertex 3.51127 72.0153 -0.00571442
      vertex 3.23473 71.7387 -0.00571442
    endloop
  endfacet
  facet normal 0.987742 -0.156094 0
    outer loop
      vertex 126.25 129.75 1.5
      vertex 126.311 130.136 -0.00571442
      vertex 126.311 130.136 1.5
    endloop
  endfacet
  facet normal 0.987742 -0.156094 0
    outer loop
      vertex 126.311 130.136 -0.00571442
      vertex 126.25 129.75 1.5
      vertex 126.25 129.75 -0.00571442
    endloop
  endfacet
  facet normal -0.987742 0.156094 0
    outer loop
      vertex 128.689 129.364 -0.00571442
      vertex 128.75 129.75 1.5
      vertex 128.75 129.75 -0.00571442
    endloop
  endfacet
  facet normal -0.987742 0.156094 0
    outer loop
      vertex 128.75 129.75 1.5
      vertex 128.689 129.364 -0.00571442
      vertex 128.689 129.364 1.5
    endloop
  endfacet
  facet normal -0.156094 -0.987742 0
    outer loop
      vertex 127.5 131 -0.00571442
      vertex 127.886 130.939 1.5
      vertex 127.5 131 1.5
    endloop
  endfacet
  facet normal -0.156094 -0.987742 -0
    outer loop
      vertex 127.886 130.939 1.5
      vertex 127.5 131 -0.00571442
      vertex 127.886 130.939 -0.00571442
    endloop
  endfacet
  facet normal 0.156094 0.987742 -0
    outer loop
      vertex 127.5 128.5 -0.00571442
      vertex 127.114 128.561 1.5
      vertex 127.5 128.5 1.5
    endloop
  endfacet
  facet normal 0.156094 0.987742 0
    outer loop
      vertex 127.114 128.561 1.5
      vertex 127.5 128.5 -0.00571442
      vertex 127.114 128.561 -0.00571442
    endloop
  endfacet
  facet normal 0.454346 0.890825 -0
    outer loop
      vertex 127.114 128.561 -0.00571442
      vertex 126.765 128.739 1.5
      vertex 127.114 128.561 1.5
    endloop
  endfacet
  facet normal 0.454346 0.890825 0
    outer loop
      vertex 126.765 128.739 1.5
      vertex 127.114 128.561 -0.00571442
      vertex 126.765 128.739 -0.00571442
    endloop
  endfacet
  facet normal 0.707107 -0.707107 0
    outer loop
      vertex 126.489 130.485 1.5
      vertex 126.765 130.761 -0.00571442
      vertex 126.765 130.761 1.5
    endloop
  endfacet
  facet normal 0.707107 -0.707107 0
    outer loop
      vertex 126.765 130.761 -0.00571442
      vertex 126.489 130.485 1.5
      vertex 126.489 130.485 -0.00571442
    endloop
  endfacet
  facet normal 0.890825 -0.454346 0
    outer loop
      vertex 126.311 130.136 1.5
      vertex 126.489 130.485 -0.00571442
      vertex 126.489 130.485 1.5
    endloop
  endfacet
  facet normal 0.890825 -0.454346 0
    outer loop
      vertex 126.489 130.485 -0.00571442
      vertex 126.311 130.136 1.5
      vertex 126.311 130.136 -0.00571442
    endloop
  endfacet
  facet normal -0.707107 -0.707107 0
    outer loop
      vertex 128.511 130.485 -0.00571442
      vertex 128.235 130.761 1.5
      vertex 128.235 130.761 -0.00571442
    endloop
  endfacet
  facet normal -0.707107 -0.707107 0
    outer loop
      vertex 128.235 130.761 1.5
      vertex 128.511 130.485 -0.00571442
      vertex 128.511 130.485 1.5
    endloop
  endfacet
  facet normal -0.890825 -0.454346 0
    outer loop
      vertex 128.689 130.136 -0.00571442
      vertex 128.511 130.485 1.5
      vertex 128.511 130.485 -0.00571442
    endloop
  endfacet
  facet normal -0.890825 -0.454346 0
    outer loop
      vertex 128.511 130.485 1.5
      vertex 128.689 130.136 -0.00571442
      vertex 128.689 130.136 1.5
    endloop
  endfacet
  facet normal -0.454346 -0.890825 0
    outer loop
      vertex 127.886 130.939 -0.00571442
      vertex 128.235 130.761 1.5
      vertex 127.886 130.939 1.5
    endloop
  endfacet
  facet normal -0.454346 -0.890825 -0
    outer loop
      vertex 128.235 130.761 1.5
      vertex 127.886 130.939 -0.00571442
      vertex 128.235 130.761 -0.00571442
    endloop
  endfacet
  facet normal -0.454346 0.890825 0
    outer loop
      vertex 128.235 128.739 -0.00571442
      vertex 127.886 128.561 1.5
      vertex 128.235 128.739 1.5
    endloop
  endfacet
  facet normal -0.454346 0.890825 0
    outer loop
      vertex 127.886 128.561 1.5
      vertex 128.235 128.739 -0.00571442
      vertex 127.886 128.561 -0.00571442
    endloop
  endfacet
  facet normal -0.890825 0.454346 0
    outer loop
      vertex 128.511 129.015 -0.00571442
      vertex 128.689 129.364 1.5
      vertex 128.689 129.364 -0.00571442
    endloop
  endfacet
  facet normal -0.890825 0.454346 0
    outer loop
      vertex 128.689 129.364 1.5
      vertex 128.511 129.015 -0.00571442
      vertex 128.511 129.015 1.5
    endloop
  endfacet
  facet normal 0.156094 -0.987742 0
    outer loop
      vertex 127.114 130.939 -0.00571442
      vertex 127.5 131 1.5
      vertex 127.114 130.939 1.5
    endloop
  endfacet
  facet normal 0.156094 -0.987742 0
    outer loop
      vertex 127.5 131 1.5
      vertex 127.114 130.939 -0.00571442
      vertex 127.5 131 -0.00571442
    endloop
  endfacet
  facet normal 0.454346 -0.890825 0
    outer loop
      vertex 126.765 130.761 -0.00571442
      vertex 127.114 130.939 1.5
      vertex 126.765 130.761 1.5
    endloop
  endfacet
  facet normal 0.454346 -0.890825 0
    outer loop
      vertex 127.114 130.939 1.5
      vertex 126.765 130.761 -0.00571442
      vertex 127.114 130.939 -0.00571442
    endloop
  endfacet
  facet normal -0.987742 -0.156094 0
    outer loop
      vertex 128.75 129.75 -0.00571442
      vertex 128.689 130.136 1.5
      vertex 128.689 130.136 -0.00571442
    endloop
  endfacet
  facet normal -0.987742 -0.156094 0
    outer loop
      vertex 128.689 130.136 1.5
      vertex 128.75 129.75 -0.00571442
      vertex 128.75 129.75 1.5
    endloop
  endfacet
  facet normal 0.987742 0.156094 0
    outer loop
      vertex 126.311 129.364 1.5
      vertex 126.25 129.75 -0.00571442
      vertex 126.25 129.75 1.5
    endloop
  endfacet
  facet normal 0.987742 0.156094 0
    outer loop
      vertex 126.25 129.75 -0.00571442
      vertex 126.311 129.364 1.5
      vertex 126.311 129.364 -0.00571442
    endloop
  endfacet
  facet normal 0.707107 0.707107 0
    outer loop
      vertex 126.765 128.739 1.5
      vertex 126.489 129.015 -0.00571442
      vertex 126.489 129.015 1.5
    endloop
  endfacet
  facet normal 0.707107 0.707107 0
    outer loop
      vertex 126.489 129.015 -0.00571442
      vertex 126.765 128.739 1.5
      vertex 126.765 128.739 -0.00571442
    endloop
  endfacet
  facet normal 0.890825 0.454346 0
    outer loop
      vertex 126.489 129.015 1.5
      vertex 126.311 129.364 -0.00571442
      vertex 126.311 129.364 1.5
    endloop
  endfacet
  facet normal 0.890825 0.454346 0
    outer loop
      vertex 126.311 129.364 -0.00571442
      vertex 126.489 129.015 1.5
      vertex 126.489 129.015 -0.00571442
    endloop
  endfacet
  facet normal -0.156094 0.987742 0
    outer loop
      vertex 127.886 128.561 -0.00571442
      vertex 127.5 128.5 1.5
      vertex 127.886 128.561 1.5
    endloop
  endfacet
  facet normal -0.156094 0.987742 0
    outer loop
      vertex 127.5 128.5 1.5
      vertex 127.886 128.561 -0.00571442
      vertex 127.5 128.5 -0.00571442
    endloop
  endfacet
  facet normal -0.707107 0.707107 0
    outer loop
      vertex 128.235 128.739 -0.00571442
      vertex 128.511 129.015 1.5
      vertex 128.511 129.015 -0.00571442
    endloop
  endfacet
  facet normal -0.707107 0.707107 0
    outer loop
      vertex 128.511 129.015 1.5
      vertex 128.235 128.739 -0.00571442
      vertex 128.235 128.739 1.5
    endloop
  endfacet
  facet normal 0.987671 -0.156543 0
    outer loop
      vertex 1.25 129.75 1.5
      vertex 1.31118 130.136 -0.00571442
      vertex 1.31118 130.136 1.5
    endloop
  endfacet
  facet normal 0.987671 -0.156543 0
    outer loop
      vertex 1.31118 130.136 -0.00571442
      vertex 1.25 129.75 1.5
      vertex 1.25 129.75 -0.00571442
    endloop
  endfacet
  facet normal -0.155988 -0.987759 0
    outer loop
      vertex 2.5 131 -0.00571442
      vertex 2.88627 130.939 1.5
      vertex 2.5 131 1.5
    endloop
  endfacet
  facet normal -0.155988 -0.987759 -0
    outer loop
      vertex 2.88627 130.939 1.5
      vertex 2.5 131 -0.00571442
      vertex 2.88627 130.939 -0.00571442
    endloop
  endfacet
  facet normal 0.155988 0.987759 -0
    outer loop
      vertex 2.5 128.5 -0.00571442
      vertex 2.11373 128.561 1.5
      vertex 2.5 128.5 1.5
    endloop
  endfacet
  facet normal 0.155988 0.987759 0
    outer loop
      vertex 2.11373 128.561 1.5
      vertex 2.5 128.5 -0.00571442
      vertex 2.11373 128.561 -0.00571442
    endloop
  endfacet
  facet normal 0.454905 0.89054 -0
    outer loop
      vertex 2.11373 128.561 -0.00571442
      vertex 1.76527 128.739 1.5
      vertex 2.11373 128.561 1.5
    endloop
  endfacet
  facet normal 0.454905 0.89054 0
    outer loop
      vertex 1.76527 128.739 1.5
      vertex 2.11373 128.561 -0.00571442
      vertex 1.76527 128.739 -0.00571442
    endloop
  endfacet
  facet normal 0.706415 -0.707798 0
    outer loop
      vertex 1.48873 130.485 1.5
      vertex 1.76527 130.761 -0.00571442
      vertex 1.76527 130.761 1.5
    endloop
  endfacet
  facet normal 0.706415 -0.707798 0
    outer loop
      vertex 1.76527 130.761 -0.00571442
      vertex 1.48873 130.485 1.5
      vertex 1.48873 130.485 -0.00571442
    endloop
  endfacet
  facet normal 0.89129 -0.453434 0
    outer loop
      vertex 1.31118 130.136 1.5
      vertex 1.48873 130.485 -0.00571442
      vertex 1.48873 130.485 1.5
    endloop
  endfacet
  facet normal 0.89129 -0.453434 0
    outer loop
      vertex 1.48873 130.485 -0.00571442
      vertex 1.31118 130.136 1.5
      vertex 1.31118 130.136 -0.00571442
    endloop
  endfacet
  facet normal -0.706415 -0.707798 0
    outer loop
      vertex 3.51127 130.485 -0.00571442
      vertex 3.23473 130.761 1.5
      vertex 3.23473 130.761 -0.00571442
    endloop
  endfacet
  facet normal -0.706415 -0.707798 0
    outer loop
      vertex 3.23473 130.761 1.5
      vertex 3.51127 130.485 -0.00571442
      vertex 3.51127 130.485 1.5
    endloop
  endfacet
  facet normal -0.89129 -0.453434 0
    outer loop
      vertex 3.68882 130.136 -0.00571442
      vertex 3.51127 130.485 1.5
      vertex 3.51127 130.485 -0.00571442
    endloop
  endfacet
  facet normal -0.89129 -0.453434 0
    outer loop
      vertex 3.51127 130.485 1.5
      vertex 3.68882 130.136 -0.00571442
      vertex 3.68882 130.136 1.5
    endloop
  endfacet
  facet normal -0.454905 -0.89054 0
    outer loop
      vertex 2.88627 130.939 -0.00571442
      vertex 3.23473 130.761 1.5
      vertex 2.88627 130.939 1.5
    endloop
  endfacet
  facet normal -0.454905 -0.89054 -0
    outer loop
      vertex 3.23473 130.761 1.5
      vertex 2.88627 130.939 -0.00571442
      vertex 3.23473 130.761 -0.00571442
    endloop
  endfacet
  facet normal -0.454905 0.89054 0
    outer loop
      vertex 3.23473 128.739 -0.00571442
      vertex 2.88627 128.561 1.5
      vertex 3.23473 128.739 1.5
    endloop
  endfacet
  facet normal -0.454905 0.89054 0
    outer loop
      vertex 2.88627 128.561 1.5
      vertex 3.23473 128.739 -0.00571442
      vertex 2.88627 128.561 -0.00571442
    endloop
  endfacet
  facet normal -0.89129 0.453434 0
    outer loop
      vertex 3.51127 129.015 -0.00571442
      vertex 3.68882 129.364 1.5
      vertex 3.68882 129.364 -0.00571442
    endloop
  endfacet
  facet normal -0.89129 0.453434 0
    outer loop
      vertex 3.68882 129.364 1.5
      vertex 3.51127 129.015 -0.00571442
      vertex 3.51127 129.015 1.5
    endloop
  endfacet
  facet normal 0.155988 -0.987759 0
    outer loop
      vertex 2.11373 130.939 -0.00571442
      vertex 2.5 131 1.5
      vertex 2.11373 130.939 1.5
    endloop
  endfacet
  facet normal 0.155988 -0.987759 0
    outer loop
      vertex 2.5 131 1.5
      vertex 2.11373 130.939 -0.00571442
      vertex 2.5 131 -0.00571442
    endloop
  endfacet
  facet normal 0.454905 -0.89054 0
    outer loop
      vertex 1.76527 130.761 -0.00571442
      vertex 2.11373 130.939 1.5
      vertex 1.76527 130.761 1.5
    endloop
  endfacet
  facet normal 0.454905 -0.89054 0
    outer loop
      vertex 2.11373 130.939 1.5
      vertex 1.76527 130.761 -0.00571442
      vertex 2.11373 130.939 -0.00571442
    endloop
  endfacet
  facet normal -0.987671 -0.156543 0
    outer loop
      vertex 3.75 129.75 -0.00571442
      vertex 3.68882 130.136 1.5
      vertex 3.68882 130.136 -0.00571442
    endloop
  endfacet
  facet normal -0.987671 -0.156543 0
    outer loop
      vertex 3.68882 130.136 1.5
      vertex 3.75 129.75 -0.00571442
      vertex 3.75 129.75 1.5
    endloop
  endfacet
  facet normal 0.987671 0.156543 0
    outer loop
      vertex 1.31118 129.364 1.5
      vertex 1.25 129.75 -0.00571442
      vertex 1.25 129.75 1.5
    endloop
  endfacet
  facet normal 0.987671 0.156543 0
    outer loop
      vertex 1.25 129.75 -0.00571442
      vertex 1.31118 129.364 1.5
      vertex 1.31118 129.364 -0.00571442
    endloop
  endfacet
  facet normal 0.706415 0.707798 0
    outer loop
      vertex 1.76527 128.739 1.5
      vertex 1.48873 129.015 -0.00571442
      vertex 1.48873 129.015 1.5
    endloop
  endfacet
  facet normal 0.706415 0.707798 0
    outer loop
      vertex 1.48873 129.015 -0.00571442
      vertex 1.76527 128.739 1.5
      vertex 1.76527 128.739 -0.00571442
    endloop
  endfacet
  facet normal 0.89129 0.453434 0
    outer loop
      vertex 1.48873 129.015 1.5
      vertex 1.31118 129.364 -0.00571442
      vertex 1.31118 129.364 1.5
    endloop
  endfacet
  facet normal 0.89129 0.453434 0
    outer loop
      vertex 1.31118 129.364 -0.00571442
      vertex 1.48873 129.015 1.5
      vertex 1.48873 129.015 -0.00571442
    endloop
  endfacet
  facet normal -0.155988 0.987759 0
    outer loop
      vertex 2.88627 128.561 -0.00571442
      vertex 2.5 128.5 1.5
      vertex 2.88627 128.561 1.5
    endloop
  endfacet
  facet normal -0.155988 0.987759 0
    outer loop
      vertex 2.5 128.5 1.5
      vertex 2.88627 128.561 -0.00571442
      vertex 2.5 128.5 -0.00571442
    endloop
  endfacet
  facet normal -0.706415 0.707798 0
    outer loop
      vertex 3.23473 128.739 -0.00571442
      vertex 3.51127 129.015 1.5
      vertex 3.51127 129.015 -0.00571442
    endloop
  endfacet
  facet normal -0.706415 0.707798 0
    outer loop
      vertex 3.51127 129.015 1.5
      vertex 3.23473 128.739 -0.00571442
      vertex 3.23473 128.739 1.5
    endloop
  endfacet
  facet normal -0.987671 0.156543 0
    outer loop
      vertex 3.68882 129.364 -0.00571442
      vertex 3.75 129.75 1.5
      vertex 3.75 129.75 -0.00571442
    endloop
  endfacet
  facet normal -0.987671 0.156543 0
    outer loop
      vertex 3.75 129.75 1.5
      vertex 3.68882 129.364 -0.00571442
      vertex 3.68882 129.364 1.5
    endloop
  endfacet
  facet normal 1 -0 0
    outer loop
      vertex 100 70 43.5967
      vertex 100 71.5 43.5
      vertex 100 71.5 46.5
    endloop
  endfacet
  facet normal 1 0 0
    outer loop
      vertex 100 70 43.5967
      vertex 100 71.5 46.5
      vertex 100 70 46.5
    endloop
  endfacet
  facet normal 1 0 0
    outer loop
      vertex 100 71.5 43.5
      vertex 100 70 43.5967
      vertex 100 71.4429 43.213
    endloop
  endfacet
  facet normal 1 0 0
    outer loop
      vertex 100 71.4429 43.213
      vertex 100 70 43.5967
      vertex 100 70 38.4033
    endloop
  endfacet
  facet normal -0 0 1
    outer loop
      vertex 80 71.5 46.5
      vertex 100 70 46.5
      vertex 100 71.5 46.5
    endloop
  endfacet
  facet normal 0 0 1
    outer loop
      vertex 100 70 46.5
      vertex 80 71.5 46.5
      vertex 80 70 46.5
    endloop
  endfacet
  facet normal -1 0 0
    outer loop
      vertex 80 70 43.5967
      vertex 80 71.5 43.5
      vertex 80 71.4429 43.213
    endloop
  endfacet
  facet normal -1 0 0
    outer loop
      vertex 80 70 43.5967
      vertex 80 71.4429 43.213
      vertex 80 70 38.4033
    endloop
  endfacet
  facet normal -1 0 0
    outer loop
      vertex 80 71.5 43.5
      vertex 80 70 43.5967
      vertex 80 71.5 46.5
    endloop
  endfacet
  facet normal -1 -0 0
    outer loop
      vertex 80 71.5 46.5
      vertex 80 70 43.5967
      vertex 80 70 46.5
    endloop
  endfacet
  facet normal 0 -1 0
    outer loop
      vertex 80 70 43.5967
      vertex 100 70 46.5
      vertex 80 70 46.5
    endloop
  endfacet
  facet normal 0 -1 -0
    outer loop
      vertex 100 70 46.5
      vertex 80 70 43.5967
      vertex 100 70 43.5967
    endloop
  endfacet
  facet normal 0 1 -0
    outer loop
      vertex 100 71.5 43.5
      vertex 80 71.5 46.5
      vertex 100 71.5 46.5
    endloop
  endfacet
  facet normal 0 1 0
    outer loop
      vertex 80 71.5 46.5
      vertex 100 71.5 43.5
      vertex 80 71.5 43.5
    endloop
  endfacet
  facet normal 0 0.980777 -0.19513
    outer loop
      vertex 100 71.4429 43.213
      vertex 80 71.5 43.5
      vertex 100 71.5 43.5
    endloop
  endfacet
  facet normal 0 0.980777 -0.19513
    outer loop
      vertex 80 71.5 43.5
      vertex 100 71.4429 43.213
      vertex 80 71.4429 43.213
    endloop
  endfacet
  facet normal 0 0.957827 -0.287346
    outer loop
      vertex 100 70 38.4033
      vertex 80 71.4429 43.213
      vertex 100 71.4429 43.213
    endloop
  endfacet
  facet normal 0 0.957827 -0.287346
    outer loop
      vertex 80 71.4429 43.213
      vertex 100 70 38.4033
      vertex 80 70 38.4033
    endloop
  endfacet
  facet normal 1 -0 0
    outer loop
      vertex 50 70 43.5967
      vertex 50 71.5 43.5
      vertex 50 71.5 46.5
    endloop
  endfacet
  facet normal 1 0 0
    outer loop
      vertex 50 70 43.5967
      vertex 50 71.5 46.5
      vertex 50 70 46.5
    endloop
  endfacet
  facet normal 1 0 0
    outer loop
      vertex 50 71.5 43.5
      vertex 50 70 43.5967
      vertex 50 71.4429 43.213
    endloop
  endfacet
  facet normal 1 0 0
    outer loop
      vertex 50 71.4429 43.213
      vertex 50 70 43.5967
      vertex 50 70 38.4033
    endloop
  endfacet
  facet normal -0 0 1
    outer loop
      vertex 30 71.5 46.5
      vertex 50 70 46.5
      vertex 50 71.5 46.5
    endloop
  endfacet
  facet normal 0 0 1
    outer loop
      vertex 50 70 46.5
      vertex 30 71.5 46.5
      vertex 30 70 46.5
    endloop
  endfacet
  facet normal -1 0 0
    outer loop
      vertex 30 70 43.5967
      vertex 30 71.5 43.5
      vertex 30 71.4429 43.213
    endloop
  endfacet
  facet normal -1 0 0
    outer loop
      vertex 30 70 43.5967
      vertex 30 71.4429 43.213
      vertex 30 70 38.4033
    endloop
  endfacet
  facet normal -1 0 0
    outer loop
      vertex 30 71.5 43.5
      vertex 30 70 43.5967
      vertex 30 71.5 46.5
    endloop
  endfacet
  facet normal -1 -0 0
    outer loop
      vertex 30 71.5 46.5
      vertex 30 70 43.5967
      vertex 30 70 46.5
    endloop
  endfacet
  facet normal 0 -1 0
    outer loop
      vertex 30 70 43.5967
      vertex 50 70 46.5
      vertex 30 70 46.5
    endloop
  endfacet
  facet normal 0 -1 -0
    outer loop
      vertex 50 70 46.5
      vertex 30 70 43.5967
      vertex 50 70 43.5967
    endloop
  endfacet
  facet normal 0 1 -0
    outer loop
      vertex 50 71.5 43.5
      vertex 30 71.5 46.5
      vertex 50 71.5 46.5
    endloop
  endfacet
  facet normal 0 1 0
    outer loop
      vertex 30 71.5 46.5
      vertex 50 71.5 43.5
      vertex 30 71.5 43.5
    endloop
  endfacet
  facet normal 0 0.980777 -0.19513
    outer loop
      vertex 50 71.4429 43.213
      vertex 30 71.5 43.5
      vertex 50 71.5 43.5
    endloop
  endfacet
  facet normal 0 0.980777 -0.19513
    outer loop
      vertex 30 71.5 43.5
      vertex 50 71.4429 43.213
      vertex 30 71.4429 43.213
    endloop
  endfacet
  facet normal 0 0.957827 -0.287346
    outer loop
      vertex 50 70 38.4033
      vertex 30 71.4429 43.213
      vertex 50 71.4429 43.213
    endloop
  endfacet
  facet normal 0 0.957827 -0.287346
    outer loop
      vertex 30 71.4429 43.213
      vertex 50 70 38.4033
      vertex 30 70 38.4033
    endloop
  endfacet
endsolid OpenSCAD_Model
